<svg height="512pt" viewBox="-86 0 512 512.0002" width="512pt" xmlns="http://www.w3.org/2000/svg"><path d="m142.164062 392.28125v102.722656c0 9.382813-7.613281 16.996094-16.996093 16.996094-9.386719 0-17-7.613281-17-16.996094v-140.621094h33.996093zm0 0" fill="#fbc41a"/><path d="m125.167969 354.382812h-17v140.144532c0 8.941406 6.714843 16.707031 15.628906 17.417968 3.613281.289063 7-.578124 9.871094-2.238281-5.078125-2.941406-8.5-8.417969-8.5-14.703125v-57.195312c0-8.914063 8.03125-15.585938 16.824219-14.128906l.171874.03125v-69.328126zm0 0" fill="#ffac06"/><path d="m309.054688 322.324219v159.285156c0 9.386719-7.613282 17-17 17-9.382813 0-16.996094-7.613281-16.996094-17v-177.707031h33.996094zm0 0" fill="#fbc41a"/><path d="m292.054688 303.902344h-16.996094v177.230468c0 8.945313 6.710937 16.707032 15.628906 17.417969 3.613281.289063 7-.574219 9.867188-2.238281-5.074219-2.941406-8.5-8.417969-8.5-14.703125v-101.714844c0-3.589843 1.359374-7.03125 3.769531-9.683593 4.742187-5.207032 9.167969-10.703126 13.230469-16.476563v-49.832031zm0 0" fill="#ffac06"/><path d="m339.960938 169.980469v54.597656c0 71.289063-43.886719 132.308594-106.109376 157.558594v46.933593c0 9.386719-7.613281 17-17 17-9.382812 0-16.996093-7.613281-16.996093-17v-37.128906c-4.851563.867188-9.777344 1.515625-14.753907 1.957032-4.984374.433593-10.03125.660156-15.121093.660156-38.734375 0-74.429688-12.957032-103.019531-34.777344v90.40625c0 9.386719-7.613282 17-16.996094 17-9.386719 0-17-7.613281-17-17v-125.011719c-20.714844-28.164062-32.964844-62.941406-32.964844-100.597656v-54.597656zm0 0" fill="#f59f02"/><path d="m186.023438 376.488281c-93.882813 0-169.980469-76.097656-169.980469-169.976562 0-12.542969 1.371093-24.761719 3.945312-36.53125-12.214843 0-19.542969 0-19.988281 0v54.597656c0 37.65625 12.25 72.433594 32.964844 100.597656v125.011719c0 9.386719 7.613281 17 17 17 9.382812 0 16.996094-7.613281 16.996094-17v-90.40625c28.589843 21.820312 64.285156 34.777344 103.019531 34.777344 5.089843 0 10.136719-.226563 15.121093-.660156 4.976563-.441407 9.902344-1.089844 14.753907-1.957032v37.128906c0 9.386719 7.613281 17 16.996093 17 9.386719 0 17-7.613281 17-17v-46.933593c28.234376-11.460938 52.695313-30.285157 70.992188-54.089844-30.648438 29.964844-72.574219 48.441406-118.820312 48.441406zm0 0" fill="#f48e06"/><path d="m339.960938 169.980469c0 93.875-76.105469 169.980469-169.980469 169.980469-93.878907 0-169.980469-76.105469-169.980469-169.980469 0-93.878907 76.101562-169.980469 169.980469-169.980469 93.875 0 169.980469 76.101562 169.980469 169.980469zm0 0" fill="#fbc41a"/><path d="m169.980469 33.996094c74.988281 0 135.984375 60.996094 135.984375 135.984375 0 74.984375-60.996094 135.984375-135.984375 135.984375s-135.984375-61-135.984375-135.984375c0-74.988281 60.996094-135.984375 135.984375-135.984375zm0 0" fill="#fcd77c"/><path d="m225.363281 186.660156-53.859375 89.757813-53.847656-89.757813 51.53125 15.933594c.75.226562 1.535156.351562 2.316406.351562.785156 0 1.566406-.125 2.320313-.351562zm0 0" fill="#92da0d"/><path d="m171.511719 276.410156 53.851562-89.75-51.539062 15.933594c-.75.226562-1.535157.351562-2.3125.351562zm0 0" fill="#63c100"/><path d="m171.183594 62.511719 54.984375 94.066406-54.210938 16.761719-55.144531-16.773438zm0 0" fill="#92da0d"/><path d="m171.183594 131.359375.773437-.363281 54.210938 25.582031-54.210938 16.761719-55.144531-16.773438zm0 0" fill="#c1db05"/><path d="m171.183594 62.511719 54.984375 94.066406-54.210938-25.582031-.773437.363281v-67.816406l-.441406-.257813zm0 0" fill="#63c100"/><path d="m50.914062 450.1875v-102.054688c0-2.191406-.828124-4.300781-2.320312-5.90625l-15.628906-16.824218v124.429687c0 8.59375 6.246094 16.109375 14.773437 17.210938 4.136719.535156 8.015625-.449219 11.199219-2.4375-4.8125-3.003907-8.023438-8.328125-8.023438-14.417969zm0 0" fill="#f27c08"/><path d="m80.773438 169.980469c0-67.015625 48.714843-122.847657 112.59375-133.964844-7.601563-1.324219-15.414063-2.019531-23.386719-2.019531-74.988281 0-135.984375 60.996094-135.984375 135.984375 0 74.984375 60.996094 135.984375 135.984375 135.984375 7.972656 0 15.785156-.699219 23.386719-2.019532-63.878907-11.117187-112.59375-66.953124-112.59375-133.964843zm0 0" fill="#f7cc6d"/><path d="m217.804688 429.070312v-31.042968c0-5.792969-5.566407-9.960938-11.125-8.332032l-6.824219 2.003907v37.011719c0 8.597656 6.246093 16.109374 14.773437 17.214843 4.136719.535157 8.015625-.453125 11.199219-2.441406-4.8125-3-8.023437-8.328125-8.023437-14.414063zm0 0" fill="#f27c08"/></svg>