<svg id="Twotone" enable-background="new 0 0 64 64" height="512" viewBox="0 0 64 64" width="512" xmlns="http://www.w3.org/2000/svg"><g id="Color_copy"><g><g><path d="m58 56h-52v-31c0-1.105.895-2 2-2h48c1.105 0 2 .895 2 2z" fill="#fff"/><path d="m43 48c-2.068 0-4.062-.314-5.939-.897 8.642-2.602 14.939-10.614 14.939-20.103 0-1.37-.147-2.704-.399-4h-43.601c-1.105 0-2 .895-2 2v31h52v-8z" fill="#cff09e"/><path d="m39 53v3h-14v-3h-22v4c0 2.209 1.791 4 4 4h50c2.209 0 4-1.791 4-4v-4z" fill="#a8dba8"/></g><g><g fill="#cff09e"><circle cx="52" cy="45" r="2"/><circle cx="44" cy="47" r="2"/><circle cx="12" cy="45" r="2"/><circle cx="32" cy="50" r="2"/><circle cx="20.245" cy="47" r="2"/></g><g><g><circle id="XMLID_302_" cx="32" cy="24" fill="#fff" r="21"/><path d="m51.53 31.71c-3.06 7.78-10.65 13.29-19.53 13.29-11.6 0-21-9.4-21-21 0-8.17 4.66-15.25 11.47-18.71-.95 2.39-1.47 4.99-1.47 7.71 0 11.6 9.4 21 21 21 3.43 0 6.67-.82 9.53-2.29z" fill="#cff09e"/></g></g></g></g></g><g id="Stroke_Close_copy"><g fill="#3b8686"><path d="m61 52h-2v-27c0-1.654-1.346-3-3-3h-2.095c-1.014-11.197-10.449-20-21.905-20s-20.891 8.803-21.905 20h-2.095c-1.654 0-3 1.346-3 3v27h-2c-.553 0-1 .448-1 1v4c0 2.757 2.243 5 5 5h50c2.757 0 5-2.243 5-5v-4c0-.552-.447-1-1-1zm-29-48c11.028 0 20 8.972 20 20s-8.972 20-20 20-20-8.972-20-20 8.972-20 20-20zm13 43c0 .551-.448 1-1 1s-1-.449-1-1 .448-1 1-1 1 .449 1 1zm-12 3c0 .551-.448 1-1 1s-1-.449-1-1 .448-1 1-1 1 .449 1 1zm-11.755-3c0 .551-.448 1-1 1s-1-.449-1-1 .448-1 1-1 1 .449 1 1zm-14.245-22c0-.551.448-1 1-1h2c0 5.105 1.752 9.805 4.681 13.542l-3.128 1.564c-.339.169-.553.515-.553.894v2.184c-1.161.414-2 1.514-2 2.816 0 1.654 1.346 3 3 3s3-1.346 3-3c0-1.302-.839-2.402-2-2.816v-1.566l3.027-1.514c.979 1.035 2.056 1.974 3.218 2.804v2.276c-1.161.414-2 1.514-2 2.816 0 1.654 1.346 3 3 3s3-1.346 3-3c0-1.302-.839-2.402-2-2.816v-1.003c2.909 1.638 6.224 2.634 9.755 2.793v1.21c-1.161.414-2 1.514-2 2.816 0 1.654 1.346 3 3 3s3-1.346 3-3c0-1.302-.839-2.402-2-2.816v-1.21c3.631-.163 7.033-1.213 10-2.934v1.144c-1.161.414-2 1.514-2 2.816 0 1.654 1.346 3 3 3s3-1.346 3-3c0-1.302-.839-2.402-2-2.816v-2.451c1.069-.786 2.063-1.667 2.973-2.629l3.027 1.514v1.566c-1.161.414-2 1.514-2 2.816 0 1.654 1.346 3 3 3s3-1.346 3-3c0-1.302-.839-2.402-2-2.816v-2.184c0-.379-.214-.725-.553-.895l-3.128-1.564c2.929-3.736 4.681-8.436 4.681-13.541h2c.552 0 1 .449 1 1v27h-18c-.553 0-1 .448-1 1v2h-12v-2c0-.552-.447-1-1-1h-18zm6 20c0 .551-.448 1-1 1s-1-.449-1-1 .448-1 1-1 1 .449 1 1zm40 0c0 .551-.448 1-1 1s-1-.449-1-1 .448-1 1-1 1 .449 1 1zm7 12c0 1.654-1.346 3-3 3h-50c-1.654 0-3-1.346-3-3v-3h20v2c0 .552.447 1 1 1h14c.553 0 1-.448 1-1v-2h20z"/><circle cx="52" cy="57" r="1"/><circle cx="56" cy="57" r="1"/><circle cx="8" cy="57" r="1"/><circle cx="12" cy="57" r="1"/><circle cx="19" cy="24" r="1"/><circle cx="45" cy="24" r="1"/><path d="m32 42c9.925 0 18-8.075 18-18s-8.075-18-18-18-18 8.075-18 18 8.075 18 18 18zm0-34c8.822 0 16 7.178 16 16s-7.178 16-16 16-16-7.178-16-16 7.178-16 16-16z"/><path d="m23 29c.553 0 1-.448 1-1v-3.764l2.105 4.211c.172.345.523.553.895.553.076 0 .153-.009.229-.027.452-.106.771-.509.771-.973v-8c0-.552-.447-1-1-1s-1 .448-1 1v3.764l-2.105-4.211c-.207-.415-.676-.632-1.124-.526-.452.106-.771.509-.771.973v8c0 .552.447 1 1 1z"/><path d="m35 21c.553 0 1-.448 1-1s-.447-1-1-1h-4c-.553 0-1 .448-1 1v8c0 .552.447 1 1 1s1-.448 1-1v-3h2c.553 0 1-.448 1-1s-.447-1-1-1h-2v-2z"/><path d="m38 20c0 .552.447 1 1 1h1v7c0 .552.447 1 1 1s1-.448 1-1v-7h1c.553 0 1-.448 1-1s-.447-1-1-1h-4c-.553 0-1 .448-1 1z"/><path d="m26.555 16.832 5.445-3.63 5.445 3.63c.171.114.364.168.554.168.323 0 .641-.156.833-.445.307-.459.183-1.081-.277-1.387l-6-4c-.336-.224-.773-.224-1.109 0l-6 4c-.46.306-.584.927-.277 1.387.305.459.924.583 1.386.277z"/><path d="m37.445 31.168-5.445 3.63-5.445-3.63c-.462-.307-1.081-.182-1.387.277-.307.459-.183 1.081.277 1.387l6 4c.168.112.362.168.555.168s.387-.056.555-.168l6-4c.46-.306.584-.927.277-1.387-.306-.459-.927-.584-1.387-.277z"/></g></g></svg>