<svg height="511pt" viewBox="0 0 511.99955 511" width="511pt" xmlns="http://www.w3.org/2000/svg"><path d="m128.007812 209.945312c-14.90625.035157-28.136718 9.554688-32.898437 23.679688-.695313-.0625-1.296875-.40625-2.011719-.40625-12.851562 0-23.269531 10.417969-23.269531 23.269531 0 12.855469 10.417969 23.273438 23.269531 23.273438h34.910156c19.277344 0 34.90625-15.628907 34.90625-34.90625 0-19.28125-15.628906-34.910157-34.90625-34.910157zm0 0" fill="#c0e6d9"/><path d="m244.367188 256.488281c19.277343 0 34.90625-15.628906 34.90625-34.90625v-58.179687c0-51.410156-41.675782-93.085938-93.085938-93.085938h-139.632812c0 25.703125 20.839843 46.542969 46.542968 46.542969 0 25.703125 20.839844 46.542969 46.542969 46.542969 0 25.703125 20.839844 46.542968 46.542969 46.542968h23.273437v11.636719c0 19.277344 15.628907 34.90625 34.910157 34.90625zm0 0" fill="#70c5aa"/><path d="m511.992188 116.859375v-116.359375h-116.359376l-255.164062 255.164062c-32.128906 32.128907-32.128906 84.226563 0 116.359376 32.132812 32.128906 84.226562 32.128906 116.359375 0zm0 0" fill="#f3b553"/><path d="m279.273438 349.578125 232.511718-232.511719h-11.636718c-19.277344 0-34.90625-15.628906-34.90625-34.910156 0-19.277344-15.628907-34.90625-34.910157-34.90625-19.277343 0-34.90625-15.628906-34.90625-34.90625v-11.636719l-232.511719 232.511719zm0 0" fill="#9f4979"/><path d="m467.078125 91.957031-222.710937 222.710938 34.90625 34.910156 232.71875-232.71875h-11.636719c-15.375-.035156-28.90625-10.160156-33.277344-24.902344zm0 0" fill="#6b3062"/><path d="m467.078125 91.957031c-1.035156-3.238281-1.582031-6.609375-1.632813-10.003906 0-19.28125-15.625-34.910156-34.90625-34.910156-3.398437-.046875-6.769531-.597657-10.003906-1.628907l-211.078125 211.074219 46.542969 46.546875zm0 0" fill="#cd84a4"/><path d="m337.453125 128.496094 46.542969-46.546875c6.425781-6.425781 16.847656-6.425781 23.273437 0 6.425781 6.429687 6.425781 16.847656 0 23.273437l-46.546875 46.542969c-6.425781 6.425781-16.84375 6.425781-23.269531 0s-6.425781-16.84375 0-23.269531zm0 0" fill="#ebb5bc"/><path d="m465.445312.5 46.546876 46.542969v-46.542969zm0 0" fill="#230022"/><path d="m162.910156 233.21875 46.542969-46.542969 116.359375 116.355469-46.542969 46.542969zm0 0" fill="#c0e6d9"/><path d="m232.726562 303.03125 46.542969-46.542969 46.542969 46.542969-46.542969 46.542969zm0 0" fill="#9fd9c5"/><path d="m197.820312 268.125 46.542969-46.542969 46.542969 46.542969-46.542969 46.542969zm0 0" fill="#daefe6"/><path d="m279.273438 349.578125-116.359376-116.359375-22.445312 22.445312c-32.128906 32.128907-32.128906 84.222657 0 116.355469v.003907c32.132812 32.128906 84.226562 32.128906 116.359375 0zm0 0" fill="#f0a319"/><path d="m209.457031 291.398438c0 19.277343-15.628906 34.90625-34.90625 34.90625-19.28125 0-34.90625-15.628907-34.90625-34.90625 0-19.28125 15.625-34.910157 34.90625-34.910157 19.277344 0 34.90625 15.628907 34.90625 34.910157zm0 0" fill="#f3b553"/><path d="m290.910156 233.21875c19.277344 0 34.90625-15.628906 34.90625-34.910156v-58.179688c0-51.410156-41.675781-93.085937-93.085937-93.085937h-139.632813c0 25.707031 20.839844 46.542969 46.542969 46.542969 0 25.707031 20.839844 46.542968 46.542969 46.542968 0 25.707032 20.839844 46.546875 46.546875 46.546875h23.269531v11.632813c0 19.28125 15.628906 34.910156 34.910156 34.910156zm0 0" fill="#daefe6"/><path d="m290.550781 71.089844c-3.050781-.003906-5.976562 1.203125-8.136719 3.359375-4.5625 4.539062-4.617187 11.90625-.121093 16.511719l.671875.6875c.105468.105468.210937.210937.320312.3125.109375.128906.222656.257812.339844.382812 12.179688 12.929688 18.945312 30.027344 18.917969 47.785156v58.179688c0 6.425781-5.207031 11.636718-11.632813 11.636718-6.429687 0-11.636718-5.210937-11.636718-11.636718v-11.632813c0-12.855469-10.417969-23.273437-23.273438-23.273437h-23.269531c-12.847657-.015625-23.257813-10.425782-23.273438-23.273438 0-12.851562-10.417969-23.269531-23.273437-23.269531l-1.519532-.050781c-.125-.003906-.25-.003906-.375-.003906-6.324218.039062-11.550781 4.941406-11.996093 11.25-.421875 5.976562 3.941406 11.226562 9.894531 11.90625.332031.027343.664062.054687.996094.074218h.003906c.804688.050782 1.613281.082032 2.429688.089844h.007812l.085938.003906h.472656c0 25.707032 20.839844 46.542969 46.542968 46.542969h.003907 23.269531v11.636719c0 19.277344 15.628906 34.90625 34.90625 34.90625 19.28125 0 34.910156-15.628906 34.910156-34.90625v-58.324219c0-.042969 0-.089844 0-.132813v-.160156c-.003906-.042968-.003906-.082031-.003906-.125v-.019531c0-.042969 0-.082031 0-.125v-.019531c0-.042969 0-.085938 0-.125v-.023438c0-.042968-.003906-.082031-.003906-.121094v-.023437c0-.039063 0-.082031 0-.125v-.019531c0-.039063-.003906-.082032-.003906-.125v-.015625c0-.042969 0-.085938 0-.128907v-.015624l-.003907-.128907v-.152343c-.003906-.046876-.003906-.089844-.003906-.136719v-.003907c0-.046874-.003906-.089843-.003906-.136718v-.011719c0-.042969-.003907-.085937-.003907-.128906v-.015625c0-.042969-.003906-.085938-.003906-.125v-.019532c0-.042968-.003906-.085937-.003906-.125v-.019531c0-.042969-.003906-.082031-.003906-.125v-.023437c0-.039063-.003906-.078125-.003906-.121094v-.019531c0-.042969-.003907-.082031-.003907-.125v-.019531l-.003906-.128907v-.011719l-.003906-.128906-.003907-.015625-.003906-.132812v-.007813l-.003906-.132812v-.011719c-.003906-.042969-.003906-.089844-.007812-.136719 0-.042968 0-.089844-.003907-.136718v-.007813c0-.042969-.003906-.089844-.003906-.132813l-.003906-.011718c0-.042969-.003907-.085938-.003907-.125v-.023438c-.003906-.039062-.003906-.082031-.007812-.121094v-.019531c0-.042969-.003906-.085937-.003906-.125l-.003906-.023437c0-.039063 0-.078125-.003907-.121094v-.019531c-.003906-.042969-.003906-.082031-.007812-.121094v-.023437c-.003907-.042969-.003907-.082032-.003907-.125l-.003906-.015626-.003906-.128906-.003906-.015625-.003906-.128906-.003907-.011719c0-.042968-.003906-.085937-.003906-.128906l-.003906-.011719c0-.042969-.003907-.085937-.003907-.128906l-.003906-.007813c0-.042968-.003906-.085937-.003906-.132812l-.003906-.011719c0-.042969-.003906-.085937-.007813-.128906v-.015625c-.003906-.042969-.003906-.082031-.007812-.125v-.019531c-.003907-.039063-.003907-.082031-.007813-.121094v-.019531c-.003906-.042969-.007812-.085938-.007812-.125l-.003906-.019532-.007813-.121093v-.023438c-.003906-.039062-.003906-.082031-.007813-.121093v-.019532l-.011718-.125v-.019531c-.003906-.039063-.003906-.082031-.007813-.125v-.015625c-.003906-.042969-.007812-.082031-.011719-.125v-.019531l-.007812-.125-.003906-.011719c0-.042969-.003906-.085938-.007813-.125v-.011719c-.003906-.046875-.007812-.089843-.011719-.132812v-.007813c-.003906-.042968-.007812-.085937-.007812-.128906l-.003906-.015625c-.003906-.042969-.003906-.082031-.007813-.125l-.003906-.019531c0-.039063-.003906-.078125-.007813-.117188v-.027344l-.011718-.117187v-.023437l-.011719-.117188-.003906-.027344-.007813-.117187-.003906-.023438-.007812-.117187-.003907-.023438c-.003906-.042968-.003906-.082031-.007812-.121094l-.003907-.019531-.011718-.125v-.015625c-.003906-.039062-.007813-.082031-.011719-.125v-.015625c-.003906-.042969-.007813-.082031-.011719-.125v-.011719c-.003906-.042968-.007812-.082031-.011718-.121093l-.003907-.019531-.011719-.121094v-.023438l-.011718-.113281-.003906-.027344c-.003907-.039062-.007813-.078125-.011719-.117187v-.023438c-.003907-.042968-.007813-.078125-.011719-.117187l-.003906-.023438c-.003906-.042969-.007813-.078125-.011719-.121093l-.003906-.019532c-.003907-.042968-.007813-.082031-.011719-.121094l-.003906-.023437c0-.039063-.007813-.078125-.011719-.117187v-.023438l-.015625-.121094v-.019531l-.011719-.121094-.003906-.019531c-.003906-.039062-.007813-.082031-.011719-.121094l-.003906-.019531c-.003906-.042969-.007812-.082031-.011719-.121094l-.003906-.011719c-.003906-.039062-.007813-.082031-.011719-.121093l-.003906-.019531c-.003906-.042969-.007812-.082032-.011719-.125l-.003906-.015626c-.003906-.039062-.007813-.078124-.011719-.117187l-.003906-.027344c-.003906-.035156-.007812-.074219-.011719-.113281l-.003906-.027344c-.003906-.035156-.007813-.074218-.011719-.109375l-.003906-.03125c-.007812-.039062-.011719-.074219-.015625-.113281l-.003906-.027344-.011719-.109375-.003906-.035156c-.003906-.035156-.007813-.074219-.011719-.109375l-.003906-.027344c-.003907-.039062-.007813-.074218-.015625-.113281l-.003906-.027344c-.003907-.039062-.007813-.078125-.011719-.117187l-.003907-.019532-.015624-.117187-.003907-.027344c-.003906-.035156-.007812-.074219-.011719-.109375l-.003906-.027344-.015625-.113281-.003906-.019531-.015625-.113281v-.023438l-.015625-.113281-.003906-.03125c-.007813-.035156-.011719-.070312-.015625-.109375l-.003906-.03125-.015626-.109375-.003906-.03125-.015625-.109375-.003906-.03125-.015625-.109375-.003906-.03125-.015625-.109375-.003907-.03125-.015624-.109375-.003907-.03125-.015625-.109375-.007812-.03125c-.003906-.035156-.007813-.070313-.015625-.109375l-.003907-.03125-.015624-.105469-.003907-.027343c-.003906-.035157-.011719-.070313-.015625-.105469l-.003906-.027344c-.003906-.039063-.011719-.074219-.015625-.113281l-.003906-.019532c-.007813-.039062-.011719-.078124-.019531-.117187l-.003907-.023437c-.003906-.035157-.007812-.074219-.015625-.113282l-.003906-.027344c-.007812-.039062-.011719-.074218-.015625-.109374l-.007813-.03125-.015624-.109376-.003907-.03125-.019531-.105468-.003906-.035156-.015625-.105469-.007813-.035157-.015625-.105468-.007812-.03125c-.003907-.039063-.011719-.074219-.015625-.109375l-.003906-.03125c-.007813-.035157-.011719-.070313-.019532-.109375l-.003906-.027344-.019531-.105469-.003907-.03125-.015624-.101562-.007813-.035157c-.007813-.035156-.011719-.070312-.015625-.105468l-.007812-.027344-.015626-.105469-.007812-.03125-.015625-.105469-.007813-.035156c-.003906-.035156-.011718-.070312-.015624-.105468l-.007813-.035157-.019531-.101562-.003906-.035157-.019532-.105468-.007812-.035156-.015625-.105469-.007813-.03125-.019531-.105469-.003906-.039062c-.007813-.03125-.015625-.066407-.019531-.101563l-.007813-.035156-.019531-.101563-.003906-.035156-.019532-.105469-.007812-.027343-.019532-.101563-.003906-.035156-.019531-.097657-.007813-.035156-.019531-.097656-.003906-.035156c-.007813-.035156-.015625-.070313-.019531-.105469l-.007813-.03125-.019531-.105469-.007812-.035156-.019532-.101562-.007812-.039063-.015625-.097656-.011719-.042969c-.003906-.03125-.011719-.0625-.019531-.097656l-.035157-.175782c-.003906-.035156-.011718-.066406-.019531-.101562l-.003906-.035156c-.007813-.03125-.015625-.066406-.023437-.101563l-.007813-.035156-.019531-.101563-.003906-.03125-.023438-.101562-.003906-.035156c-.007813-.03125-.015625-.066406-.023438-.097656l-.003906-.035157-.023438-.09375-.007812-.042969-.019531-.09375-.007813-.039062-.019531-.101562-.007813-.035157-.023437-.101562-.007813-.035157-.019531-.101562-.007812-.039062-.023438-.097657-.007812-.039062-.023438-.097657-.027343-.136718-.011719-.039063-.019531-.097656-.007813-.042969c-.007813-.03125-.015625-.058594-.019531-.089844l-.011719-.042968-.019531-.089844-.007813-.042969-.019531-.085937-.011719-.050782c-.007812-.027343-.015625-.054687-.019531-.082031l-.011719-.046875-.019531-.089844-.007812-.039062-.023438-.101562-.007812-.035157c-.007813-.03125-.015626-.0625-.023438-.097656l-.011719-.042969-.019531-.089844-.011719-.042968-.019531-.097656-.011719-.039063c-.007812-.03125-.015625-.0625-.023437-.097656l-.007813-.039063c-.007812-.03125-.015625-.0625-.023437-.097656l-.011719-.039062c-.003906-.03125-.011719-.0625-.019531-.09375l-.011719-.042969-.019531-.089844-.011719-.042969c-.007813-.03125-.011719-.054687-.019531-.082031l-.015625-.054687c-.003907-.027344-.011719-.054688-.015625-.078126l-.015625-.058593-.019531-.074219-.011719-.058594-.019531-.074218-.015626-.058594c-.003906-.023438-.011718-.050782-.019531-.078125-.003906-.015625-.007812-.03125-.011719-.046875-.007812-.03125-.015624-.058594-.023437-.089844l-.007813-.046875-.023437-.085937-.011719-.050782-.023437-.089844-.011719-.042968c-.007812-.03125-.015625-.0625-.023438-.089844l-.035156-.140625-.011718-.039063-.035157-.140624-.019531-.082032-.015625-.046875-.019531-.078125-.015625-.058594c-.003907-.023437-.011719-.050781-.019531-.074218-.003907-.019532-.007813-.039063-.015626-.054688-.003906-.027344-.011718-.050781-.015624-.074218l-.019532-.066407c-.003906-.023437-.011718-.046875-.019531-.070312l-.011719-.054688-.023437-.078125-.015625-.054687-.019532-.082031-.011718-.046876-.023438-.085937-.015625-.050781c-.007812-.027344-.015625-.058594-.023437-.085938l-.011719-.046875c-.007813-.027343-.015625-.058593-.023437-.085937l-.015626-.050782-.023437-.085937-.011719-.046875-.019531-.074219-.019531-.066406-.019532-.058594-.019531-.074219c-.003906-.019531-.011719-.039062-.015625-.0625l-.019531-.070312-.019531-.0625c-.003906-.023438-.011719-.046875-.019532-.070312l-.015624-.058594-.023438-.078125-.015625-.054688c-.007813-.027343-.015625-.050781-.019531-.074219l-.019532-.0625c-.007812-.023437-.011718-.046874-.019531-.070312l-.019531-.0625c-.003906-.019531-.011719-.039062-.015625-.058594l-.023437-.074218-.015626-.058594-.019531-.074219-.019531-.0625c-.007812-.023437-.015625-.046875-.023438-.074219l-.015624-.0625-.015626-.054687-.023437-.078125-.015625-.050782-.027344-.082031-.011718-.046875-.027344-.085937-.011719-.046875-.027344-.085938-.011719-.046875-.027343-.085937-.015625-.046875c-.007813-.027344-.015625-.058594-.027344-.089844l-.011719-.042969c-.007812-.027344-.019531-.058594-.027343-.089844l-.015626-.042968-.023437-.085938-.015625-.050781-.023438-.070313-.019531-.0625c-.003906-.019531-.011719-.035156-.015625-.054687l-.023437-.078125-.019531-.058594c-.007813-.023437-.015626-.050781-.023438-.074218l-.019531-.058594-.023438-.078125-.015625-.054688c-.007812-.019531-.015625-.042969-.019531-.0625-.007813-.023437-.015625-.046875-.023437-.070312l-.019532-.058594c-.007812-.027344-.015625-.050781-.023437-.074219l-.015625-.050781c-.007813-.027344-.019532-.058594-.027344-.085937l-.015625-.042969-.027344-.09375-.042969-.128907-.015624-.042968-.027344-.089844-.015625-.039062-.027344-.09375-.015625-.042969c-.007812-.03125-.019531-.058594-.027344-.089844l-.015625-.039063c-.007812-.027343-.015625-.058593-.027343-.082031l-.015626-.054687-.019531-.058594-.023437-.074219-.023438-.0625c-.007812-.023437-.015625-.046875-.023437-.070312-.007813-.019531-.011719-.042969-.019531-.0625l-.011719-.035157-.035157-.097656-.011718-.035156c-.011719-.03125-.019532-.0625-.03125-.09375l-.011719-.039062c-.011719-.03125-.023437-.066407-.035156-.097657l-.007813-.027343c-.011718-.039063-.023437-.070313-.039062-.105469l-.007813-.027344c-.011719-.035156-.023437-.074219-.035156-.105469l-.011719-.027344-.035156-.105468-.011719-.03125-.035156-.101563-.007813-.027343-.042968-.121094-.003906-.007813-.042969-.132812h-.003907c-.039062-.113281-.078124-.222657-.117187-.332031l-.003906-.015626-.042969-.117187-.007812-.023437c-.011719-.035157-.023438-.070313-.039063-.105469l-.007813-.03125-.039062-.101563-.007812-.027344-.039063-.105468-.011719-.027344-.035156-.105469-.011719-.027343-.035156-.097657-.011719-.035156-.039062-.097656-.007813-.03125-.039062-.105469-.011719-.023438c-.015625-.042968-.03125-.085937-.042969-.125l-.003906-.007812c-.058594-.152344-.117187-.308594-.171875-.464844h-.003906c-.015625-.042968-.03125-.085937-.046875-.128906l-.003907-.011719c-.015624-.039062-.03125-.078125-.046874-.117187l-.003907-.019532-.046875-.113281-.003906-.015625-.046875-.117187-.003906-.011719-.046875-.117188-.003906-.015624-.046876-.121094-.003906-.011719-.050781-.125v-.003906c-.09375-.242188-.191406-.484375-.285156-.722657v-.003906l-.054688-.128906v-.003906l-.050781-.128906-.054688-.128907v-.003906l-.050781-.128906-.003906-.003907c-.015625-.039062-.03125-.082031-.050781-.125l-.003906-.007812c-.132813-.328125-.265626-.648438-.402344-.976562l-.003906-.007813c-.019532-.042969-.035157-.082031-.054688-.121094v-.007812l-.109375-.253907v-.003906c-4.296875-10.035156-10.324219-19.242187-17.804687-27.191406-.125-.132812-.253907-.261719-.382813-.386719-.109375-.125-.21875-.246093-.332031-.367187-.132813-.136719-.269532-.277344-.402344-.414063l-.03125-.035156c-.019531-.019531-.039062-.035156-.058594-.058594l-.078125-.078125-.023437-.027344c-.03125-.03125-.0625-.0625-.097656-.09375l-.007813-.011718c-.035156-.035156-.070313-.074219-.109375-.109375-.074219-.078125-.148438-.152344-.222656-.226563l-.003906-.003906c-.042969-.042969-.082032-.082031-.125-.125-2.15625-2.148438-5.082032-3.351562-8.128907-3.347656zm0 0" fill="#9fd9c5"/><path d="m488.71875 396.121094c-.4375 0-.800781.222656-1.230469.246094 6.617188-31.386719-13.464843-62.195313-44.855469-68.8125-31.386718-6.617188-62.199218 13.464843-68.816406 44.851562-.199218.953125-.375 1.90625-.527344 2.867188-17.957031-6.960938-38.160156 1.957031-45.117187 19.917968-6.957031 17.957032 1.960937 38.15625 19.917969 45.117188 4.03125 1.5625 8.3125 2.359375 12.632812 2.355468h127.996094c12.851562.003907 23.277344-10.410156 23.28125-23.261718.003906-12.855469-10.410156-23.277344-23.261719-23.28125-.007812 0-.011719 0-.019531 0zm0 0" fill="#c0e6d9"/><path d="m481.035156 355.5625c-2.835937-4.933594-6.378906-9.429688-10.511718-13.34375-.042969-.039062-.085938-.078125-.128907-.121094l-.125-.117187-.003906-.003907-.253906-.238281h-.003907c-.257812-.238281-.515624-.472656-.777343-.707031l-.003907-.003906c-.234374-.207032-.464843-.410156-.703124-.617188h-.003907c-.175781-.152344-.355469-.304687-.535156-.457031-.085937-.074219-.175781-.148437-.265625-.222656l-.003906-.003907c-.089844-.074218-.179688-.148437-.269532-.222656l-.003906-.003906c-.089844-.074219-.179687-.144531-.269531-.21875l-.136719-.109375-.003906-.003906c-.042969-.03125-.085938-.070313-.128906-.105469l-.007813-.003906c-.042969-.035156-.085937-.070313-.132812-.105469l-.003907-.003906c-.015624-.011719-.027343-.023438-.042968-.035157l-.007813-.003906c-.027343-.023437-.054687-.042968-.082031-.066406l-.003906-.003906-.046875-.035156-.003907-.003907c-.027343-.023437-.058593-.046875-.085937-.070312-.015625-.011719-.03125-.023438-.046875-.035157l-.003906-.003906c-.027344-.019531-.050782-.039062-.078125-.0625l-.015625-.011718c-.011719-.007813-.027344-.019532-.039063-.027344l-.011719-.011719c-.027343-.019531-.054687-.042969-.082031-.0625h-.003906c-.011719-.011719-.027344-.027344-.042969-.035156l-.007812-.007813c-.027344-.019531-.058594-.042968-.085938-.066406l-.042968-.035156-.007813-.003906c-.042969-.035157-.089844-.070313-.132813-.101563l-.007812-.007813c-.042969-.03125-.085938-.066406-.132812-.101562l-.007813-.003906c-.042969-.035156-.085937-.066406-.128906-.101563l-.011719-.007812c-.042969-.03125-.089844-.066407-.132812-.097657l-.003907-.003906c-.046875-.035156-.09375-.070312-.140625-.105468-.046875-.035157-.09375-.070313-.136718-.101563l-.003907-.003906c-.046875-.035157-.09375-.066407-.136719-.101563l-.011718-.003906c-.039063-.03125-.085938-.066406-.128906-.097656l-.011719-.007813c-.042969-.03125-.085938-.066406-.132813-.097656l-.007812-.007813c-.042969-.03125-.089844-.0625-.132813-.09375l-.011719-.007812c-.042968-.03125-.085937-.0625-.132812-.09375l-.007812-.011719c-.046876-.03125-.09375-.0625-.136719-.09375l-.007813-.003906-.136718-.097656-.003907-.007813c-.015625-.007812-.03125-.019531-.046875-.03125l-.003906-.003906c-.027344-.019531-.054688-.039062-.085938-.058594l-.007812-.007812c-.015625-.011719-.03125-.019532-.046875-.03125l-.003906-.003906c-.027344-.019532-.058594-.039063-.085938-.0625l-.007812-.003907c-.015625-.011719-.03125-.019531-.042969-.03125l-.007812-.003906c-.03125-.019531-.058594-.039063-.085938-.0625h-.007812l-.042969-.03125-.011719-.007813c-.027344-.019531-.058594-.042968-.085938-.0625-.019531-.011718-.03125-.023437-.046874-.03125l-.007813-.003906c-.027344-.019531-.058594-.039062-.085937-.0625l-.007813-.003906c-.015625-.007812-.03125-.019531-.042969-.03125l-.011718-.003906-.082032-.058594-.011718-.003906-.039063-.03125-.011719-.007813c-.046875-.03125-.089844-.058593-.136718-.089843l-.007813-.007813c-.046875-.03125-.089844-.0625-.136719-.09375l-.011718-.003906c-.03125-.023438-.058594-.039063-.089844-.0625l-.042969-.03125-.015625-.007813c-.042969-.027344-.085938-.058594-.128906-.085937l-.015625-.011719c-.046875-.027344-.089844-.058594-.132813-.085938l-.015625-.011718c-.046875-.027344-.089843-.054688-.132812-.085938l-.015625-.007812c-.042969-.03125-.085938-.058594-.132813-.085938l-.015625-.011718c-.042968-.03125-.085937-.058594-.132812-.085938l-.011719-.011719c-.046875-.027343-.089844-.054687-.136719-.085937l-.011718-.007813c-.042969-.027343-.089844-.054687-.132813-.082031l-.019531-.015625c-.011719-.007813-.027344-.015625-.039063-.023437l-.015625-.007813c-.023437-.015625-.050781-.035156-.078125-.050781l-.015625-.011719-.039062-.027344h-.007813c-.027343-.019531-.054687-.035156-.085937-.054687l-.015625-.011719c-.011719-.007813-.027344-.015625-.042969-.027344l-.007812-.003906c-.027344-.019531-.054688-.03125-.082032-.050781l-.015625-.011719c-.015625-.007813-.027343-.015625-.042969-.027344h-.003906c-.027344-.019531-.058594-.039062-.089844-.054687l-.011718-.007813c-.015625-.011719-.027344-.019531-.042969-.027343l-.011719-.011719c-.027344-.015625-.054687-.03125-.082031-.046875l-.015625-.011719-.042969-.023437-.015625-.011719-.070312-.042969-.019532-.011719c-.015624-.007812-.027343-.019531-.042968-.027343l-.015625-.007813-.078125-.046875-.011719-.007812c-.015625-.007813-.03125-.019532-.046875-.03125l-.007812-.003907c-.027344-.015625-.058594-.03125-.085938-.050781l-.011719-.007812c-.015625-.007813-.027343-.015626-.039062-.023438l-.027344-.015625c-.023437-.011719-.046875-.027344-.066406-.039063l-.019531-.011718-.042969-.027344-.019531-.011719c-.023438-.011719-.042969-.023437-.066407-.039062l-.023437-.011719-.039063-.023438-.023437-.015624-.0625-.039063-.027344-.015625c-.015625-.007812-.023438-.011719-.039062-.019531l-.023438-.015625c-.027344-.015625-.050781-.03125-.078125-.046875l-.007813-.003907-.042968-.023437-.023438-.015625c-.023437-.015625-.046875-.027344-.070312-.039062l-.019532-.011719c-.011718-.007813-.027343-.015625-.039062-.023438l-.023438-.011719-.128906-.078124-.019531-.011719c-.042969-.027344-.089844-.050781-.132813-.078125l-.023437-.011719c-.042969-.023437-.085937-.046875-.128906-.070313l-.023438-.015624c-.046875-.027344-.089843-.050782-.132812-.074219l-.019531-.011719c-.015626-.007812-.027344-.015625-.042969-.023438l-.007813-.007812-.085937-.046875-.015625-.007813-.136719-.078124-.019531-.007813c-.042969-.027344-.089844-.050781-.136719-.074219-.003906-.007812-.011719-.011718-.019531-.011718l-.039063-.027344-.011719-.003906-.082031-.046876-.019531-.007812-.042969-.023438-.019531-.011718c-.023438-.011719-.050781-.027344-.070312-.039063l-.023438-.011719c-.015625-.007812-.027344-.015624-.042969-.023437l-.007812-.003906c-.03125-.015625-.058594-.03125-.089844-.046875l-.011719-.007813c-.015625-.007812-.03125-.015625-.046875-.023437l-.011719-.007813-.082031-.042969-.019531-.011718-.042969-.023438-.011719-.007812c-.027343-.011719-.054687-.027344-.082031-.042969l-.015625-.007813c-.015625-.007812-.027344-.015624-.042968-.023437l-.019532-.007813c-.023437-.015624-.050781-.027343-.074218-.042968l-.023438-.007813c-.011719-.007812-.027344-.015625-.039062-.023437l-.023438-.011719c-.023438-.015625-.046875-.027344-.074219-.039063l-.015625-.011718c-.015625-.003906-.03125-.011719-.042968-.019532l-.019532-.011718c-.027344-.011719-.050781-.023438-.074218-.039063l-.085938-.042969-.074219-.039062-.019531-.011719-.039062-.019531-.027344-.011719-.074219-.039062-.015625-.007813-.042969-.023437-.023437-.011719-.074219-.035156-.019531-.011719c-.011719-.003906-.027344-.011719-.039063-.019531l-.027343-.011719c-.019532-.011719-.039063-.023437-.058594-.03125l-.035156-.019531c-.011719-.003906-.023438-.011719-.035157-.015625l-.03125-.015625-.058593-.03125-.03125-.015625c-.011719-.003907-.023438-.011719-.035157-.019531l-.03125-.011719c-.019531-.011719-.039062-.019531-.058593-.03125-.011719-.003907-.023438-.011719-.035157-.015625-.011719-.007813-.023437-.015625-.035156-.019532l-.027344-.015624c-.015625-.003907-.027343-.011719-.039062-.019532-.019531-.007812-.035157-.015625-.054688-.023437l-.039062-.019531-.027344-.015626-.039063-.019531c-.019531-.007812-.035156-.015625-.054687-.023437l-.035156-.023438c-.011719 0-.019531-.007812-.027344-.011718-.015625-.003907-.027344-.011719-.042969-.019532-.011718-.003906-.019531-.007812-.03125-.015625l-.058594-.027343-.03125-.015626c-.011718-.007812-.023437-.011718-.035156-.019531-.011718-.003906-.019531-.007812-.03125-.011719-.023437-.011718-.042968-.023437-.066406-.03125l-.023438-.011718c-.015624-.007813-.027343-.015625-.042968-.019532l-.015625-.011718-.074219-.035156-.027344-.011719c-.015625-.007813-.027344-.011719-.039062-.019531-.011719-.003907-.027344-.011719-.039063-.015626-.019531-.011718-.035156-.019531-.054687-.027343-.007813-.003907-.019532-.007813-.027344-.011719l-.042969-.019531-.023437-.015625c-.023438-.007813-.046875-.019532-.066406-.03125l-.027344-.011719c-.015625-.007813-.027344-.011719-.039063-.019531l-.035156-.015625-.054687-.027344-.035157-.015625c-.011719-.003906-.023437-.007812-.035156-.015625-.015625-.007813-.023437-.011719-.039063-.019531-.015624-.007813-.035156-.015625-.054687-.023438-.007813-.003906-.019531-.011718-.03125-.015625l-.035156-.015625-.039063-.015625c-.015625-.011719-.035156-.019531-.054687-.027343l-.03125-.015626c-.011719-.003906-.027344-.011718-.039063-.015624l-.027344-.015626-.066406-.027343c-.007812-.003907-.019531-.011719-.03125-.015625l-.035156-.015625c-.011719-.003907-.019531-.007813-.027344-.011719l-.074218-.035156-.019532-.007813c-.015625-.007812-.03125-.015625-.042968-.019531l-.023438-.011719c-.023438-.011719-.046875-.019531-.070312-.03125l-.027344-.011719-.039063-.019531c-.011719-.003906-.023437-.007812-.035156-.011719-.015625-.007812-.035156-.015624-.050781-.023437l-.039063-.015625-.039062-.019531-.027344-.011719c-.019531-.011719-.039063-.019531-.058594-.027344l-.035156-.015625-.039063-.015625-.03125-.015625-.0625-.027343-.03125-.011719c-.011718-.007813-.023437-.011719-.035156-.019531l-.035156-.015626c-.015625-.003906-.027344-.011718-.042969-.015624-.015625-.007813-.035156-.015626-.046875-.023438l-.039062-.015625c-.011719-.003906-.023438-.007813-.03125-.011719-.011719-.007812-.023438-.011718-.035156-.015625-.019532-.011719-.039063-.015625-.058594-.027343-.011719-.003907-.027344-.007813-.039063-.015626l-.03125-.015624-.035156-.011719-.058594-.027344-.039062-.015625-.03125-.011719c-.042969-.019531-.089844-.039062-.132813-.058593l-.027344-.011719-.042968-.015625c-.015625-.007813-.035156-.015625-.054688-.023438l-.039062-.015625-.03125-.015625c-.011719-.003906-.023438-.007812-.035156-.015625-.011719-.003906-.023438-.007812-.039063-.011719-.019531-.007812-.039063-.019531-.0625-.027343l-.027344-.011719-.039062-.015625c-.011719-.003906-.027344-.011719-.042969-.015625l-.050781-.023438-.03125-.011718-.035157-.019532c-.015624-.003906-.027343-.007812-.039062-.011718-.019531-.007813-.039062-.015625-.054688-.023438-.015624-.003906-.027343-.011718-.039062-.015625-.011719-.003906-.023438-.007812-.035156-.015625-.015625-.003906-.027344-.011718-.042969-.015625-.019531-.007812-.035156-.015625-.050781-.019531l-.03125-.015625c-.015625-.003906-.027344-.007813-.039063-.015625-.011719-.003906-.023437-.007812-.035156-.011719-.019531-.011719-.042969-.019531-.0625-.023437l-.03125-.015625-.039063-.015625-.035156-.015625-.058594-.019531-.03125-.015626c-.011718-.003906-.027343-.007812-.039062-.011718l-.03125-.015625-.0625-.023438-.035156-.015625-.039063-.011718-.03125-.015626c-.019531-.007812-.042969-.011718-.0625-.023437-.011719-.003906-.019531-.007813-.03125-.011719s-.023437-.011718-.035156-.015625c-.015625-.003906-.027344-.007812-.042969-.015625-.015625-.003906-.035156-.011718-.050781-.019531-.015625-.003906-.027344-.007813-.039063-.015625-.011718-.003906-.023437-.007812-.035156-.011719-.015625-.003906-.027344-.007812-.039062-.015625-.019532-.007812-.035156-.011718-.050782-.019531l-.039062-.015625c-.015625-.003906-.027344-.007812-.039062-.015625-.011719 0-.023438-.007813-.035157-.011719-.019531-.007812-.039062-.015625-.058593-.023437-.011719-.003907-.023438-.007813-.035157-.011719l-.039062-.015625c-.011719-.003906-.023438-.007813-.035157-.011719-.019531-.007812-.039062-.015625-.058593-.023437-.011719-.003907-.023438-.007813-.035157-.011719-.011718-.007812-.027343-.011719-.039062-.015625-.007812-.003906-.019531-.007813-.03125-.011719l-.0625-.023437c-.011719-.003907-.023438-.007813-.035156-.011719-.011719-.003906-.023438-.011719-.039063-.015625l-.03125-.011719c-.015625-.007812-.03125-.011718-.046875-.019531l-.050781-.015625c-.011719-.003906-.023437-.011719-.035156-.015625s-.023438-.007813-.035157-.011719c-.019531-.007812-.039062-.011718-.058593-.019531-.011719-.003906-.023438-.011719-.039063-.015625l-.035156-.011719-.035156-.015625c-.015625-.003906-.027344-.007812-.046875-.015625l-.050781-.015625-.035157-.015625-.039062-.011719-.03125-.015624-.0625-.019532-.035157-.011718-.039062-.015626-.03125-.011718c-.023438-.007813-.042969-.015625-.0625-.023438-.011719 0-.023438-.003906-.035156-.011718-.011719-.003907-.023438-.007813-.039063-.011719-.011719-.003907-.023437-.007813-.035156-.011719-.019531-.007812-.042969-.015625-.0625-.023438l-.027344-.007812c-.015625-.007812-.03125-.011719-.042969-.015625l-.035156-.011719-.058594-.023437-.035156-.011719c-.015625-.003906-.027344-.007812-.039062-.011719l-.035156-.011719-.0625-.019531-.03125-.011719c-.015626-.003906-.027344-.011718-.039063-.015624l-.035156-.011719c-.019531-.007813-.039063-.011719-.058594-.019531l-.039063-.011719-.035156-.015625-.039062-.011719-.0625-.019531c-.007813-.003906-.019532-.007813-.027344-.007813l-.042969-.015625-.035156-.011718c-.023437-.007813-.042969-.015626-.066406-.023438l-.023438-.007812c-.015625-.003907-.03125-.011719-.046875-.015626l-.03125-.011718-.058594-.019532c-.011718 0-.023437-.003906-.035156-.007812l-.042968-.015625c-.011719-.003906-.023438-.007813-.035157-.011719l-.046875-.015625c-.015625-.003906-.035156-.007812-.050781-.015625l-.035156-.011718-.039063-.011719-.050781-.015625-.035156-.011719c-.015625-.007813-.03125-.011719-.050781-.015625-.007813-.003906-.019532-.007812-.03125-.011719-.015626-.003906-.035157-.011719-.050782-.015625l-.039062-.015625c-.015625-.003906-.035156-.007812-.046875-.011719-.011719-.003906-.023438-.007812-.035157-.011718-.015624-.003906-.035156-.011719-.050781-.015625l-.03125-.011719-.058593-.015625c-.007813-.003906-.019532-.007813-.027344-.011719-.019532-.003906-.035156-.007812-.050782-.015625l-.039062-.011719c-.015625-.003906-.03125-.007812-.050781-.015624-.011719-.003907-.023438-.007813-.035157-.007813l-.042968-.015625-.035156-.011719c-.019532-.003906-.039063-.011719-.058594-.015625l-.03125-.011718-.050782-.015626-.027343-.007812c-.019531-.003906-.042969-.011719-.0625-.019531l-.03125-.007813c-.015625-.003906-.03125-.011718-.050781-.015625-.007813-.003906-.015626-.003906-.023438-.007812l-.066406-.019531-.03125-.007813-.050782-.015625c-.007812-.003906-.015624-.003906-.023437-.007812-.023437-.007813-.042969-.011719-.066406-.019532l-.03125-.007812-.050781-.015625-.023438-.007813c-.023438-.007812-.046875-.011718-.066406-.019531l-.03125-.007813c-.015625-.007812-.03125-.011718-.046875-.015624l-.027344-.007813c-.023437-.007813-.046875-.015625-.066406-.019531-.011719-.003906-.023438-.007813-.03125-.011719-.015625-.003906-.035157-.007813-.046875-.011719l-.027344-.007812c-.023438-.003906-.046875-.011719-.070312-.019532l-.027344-.007812c-.015625-.003906-.03125-.007812-.050782-.015625-.007812 0-.015624-.003906-.027343-.007813-.019531-.003906-.046875-.011718-.066407-.019531-.007812 0-.019531-.003906-.027343-.003906-.015625-.007813-.035157-.011719-.050781-.015625l-.027344-.007812c-.019532-.007813-.046875-.011719-.066406-.019532l-.027344-.007812c-.019532-.003906-.035156-.007813-.050782-.011719l-.027343-.007813c-.023438-.007812-.046875-.015624-.070313-.023437l-.019531-.003906c-.019531-.003907-.039063-.011719-.058594-.015625l-.023437-.003906c-.023438-.007813-.046875-.015626-.074219-.023438l-.015625-.003906c-.019531-.003906-.042969-.011719-.058594-.015625l-.027344-.007813c-.019531-.003906-.046874-.011718-.066406-.015625l-.027344-.007812c-.015624-.003907-.035156-.011719-.054687-.015625l-.023437-.007813c-.023438-.003906-.046876-.011719-.070313-.015625l-.023437-.007812c-.015626-.003906-.035157-.011719-.054688-.015625l-.027344-.003907-.070312-.019531-.019532-.007812-.058593-.011719-.023438-.007812c-.023437-.007813-.042969-.011719-.070312-.019532-.003907 0-.011719-.003906-.019531-.003906l-.058594-.015625-.027344-.007813-.058594-.015624-.035156-.007813c-.019531-.003906-.035156-.007813-.054688-.011719-.007812-.003906-.015624-.003906-.027343-.007812-.019531-.003906-.039063-.011719-.058594-.015625-.011719-.003907-.019531-.003907-.03125-.007813l-.058594-.015625-.027343-.003906-.058594-.015625-.023438-.007812-.0625-.015626-.027344-.003906-.058593-.015625c-.007813-.003906-.015625-.003906-.027344-.007812l-.0625-.015625-.027344-.007813-.054687-.011719-.027344-.007812-.066406-.015625-.027344-.003906c-.019531-.007813-.039062-.011719-.058594-.015625l-.019531-.003906-.070313-.019532c-.011718 0-.019531-.003906-.027343-.003906-.019531-.003906-.035157-.007812-.054688-.011719l-.023437-.007812-.070313-.015625-.027343-.007813c-.019532-.003906-.035157-.007812-.054688-.011719-.007812-.003906-.015625-.003906-.023438-.007812-.023437-.003906-.046874-.007812-.070312-.015625l-.03125-.003906c-.015625-.007813-.03125-.007813-.046875-.011719-.011719-.003906-.019531-.003906-.027344-.007812l-.070312-.015626-.03125-.003906-.050781-.015625-.027344-.003906c-.019532-.007813-.046875-.011719-.070313-.015625l-.027343-.007812c-.015626-.003907-.03125-.007813-.050782-.011719l-.023437-.003907c-.027344-.007812-.050781-.011718-.074219-.015624-.007812-.003907-.015625-.003907-.027344-.007813-.019531-.003906-.03125-.007813-.050781-.007813l-.03125-.007812c-.019531-.007812-.042969-.011719-.066406-.015625l-.027344-.007813c-.015625-.003906-.035156-.003906-.050781-.007812l-.03125-.007812c-.023438-.003907-.046875-.007813-.070313-.015626l-.023437-.003906c-.015625-.003906-.035156-.007812-.054688-.011718l-.027344-.007813c-.023437-.003906-.046874-.007813-.070312-.015625-.011719 0-.019531 0-.027344-.003906-.019531-.003906-.035156-.007813-.050781-.011719l-.027344-.003906c-.023437-.003907-.050781-.011719-.074219-.015625l-.023437-.003906-.054687-.011719-.027344-.007813c-.023438-.003906-.046875-.007812-.070313-.011718-.007812-.003907-.015625-.003907-.023437-.007813-.019532 0-.035156-.003906-.054688-.007813l-.03125-.007812c-.023437-.003906-.042968-.007812-.070312-.015625-.007813 0-.015625 0-.023438-.003906-.019531-.003907-.035156-.007813-.054687-.011719-.007813 0-.019531-.003906-.027344-.003906-.023437-.003906-.046875-.011719-.070313-.015625l-.023437-.003907c-.019531-.003906-.035156-.007812-.054687-.011718l-.027344-.003906c-.027344-.007813-.050782-.011719-.074219-.015626l-.019531-.003906c-.015625-.003906-.039063-.007812-.058594-.011718l-.027344-.003907-.070312-.015625-.019532-.003906c-.019531-.003906-.039062-.003906-.0625-.007812-.007812-.003907-.019531-.003907-.027343-.007813l-.066407-.011719-.019531-.003906-.066406-.015625-.09375-.015625-.015625-.003906-.066406-.011719-.027344-.003906-.066406-.011719-.015625-.003906-.070313-.011719c-.011718-.003906-.019531-.003906-.027344-.007813-.023437-.003906-.046874-.007812-.070312-.011718h-.007812c-.027344-.007813-.050782-.011719-.074219-.015625l-.027344-.003907c-.019531-.003906-.042969-.007812-.0625-.011718h-.015625l-.078125-.015625-.023437-.003907-.066407-.011718-.011719-.003906c-.023437-.003907-.050781-.007813-.078124-.011719l-.019532-.003907-.074218-.011718-.007813-.003906-.078125-.011719-.019531-.003907c-.023438-.003906-.046875-.007812-.070313-.011718h-.011718c-.027344-.003906-.050782-.007813-.078126-.015625l-.023437-.003907c-.019531-.003906-.042969-.003906-.066406-.007812l-.015625-.003906c-.027344-.003906-.050782-.007813-.078125-.011719l-.019531-.003906c-.023438-.003907-.042969-.007813-.066407-.011719h-.015625l-.074218-.015625-.023438-.003906c-.023438-.003907-.042969-.003907-.066406-.007813l-.015625-.003906-.078125-.011719-.019532-.003906c-.023437-.003906-.042968-.007813-.066406-.007813l-.015625-.003906c-.027343-.003906-.050781-.007812-.078125-.011718l-.023437-.003907-.058594-.007812-.023437-.003907-.078126-.011718-.019531-.003906c-.019531-.003907-.042969-.007813-.0625-.007813l-.023437-.003906c-.023438-.003907-.050782-.007813-.074219-.011719l-.019531-.003906-.066406-.007813-.019532-.003906c-.023437-.003906-.050781-.007813-.078125-.011719l-.015625-.003906c-.023437 0-.042968-.003906-.066406-.007812l-.019531-.003907c-.027344-.003906-.050781-.007812-.078125-.011719h-.015625c-.023438-.003906-.046875-.007812-.070313-.011718h-.015625c-.027343-.003906-.054687-.007813-.085937-.011719-.027344-.003906-.050782-.007813-.078125-.011719l-.019531-.003906c-.027344-.003906-.050782-.003906-.078126-.011719h-.015624l-.070313-.007812-.019531-.003907c-.027344-.003906-.050782-.007812-.078125-.011718h-.011719c-.023438-.003906-.046875-.003906-.070312-.007813l-.019532-.003906-.078125-.011719h-.011719l-.070312-.007812c-.007812 0-.015625-.003906-.027344-.003906-.023437-.003907-.046875-.007813-.074218-.007813h-.003907c-.027343-.003906-.050781-.007813-.078125-.011719l-.023437-.003906-.070313-.007812h-.011718c-.027344-.003907-.050782-.007813-.078126-.011719h-.023437l-.070313-.011719h-.007812c-.027344-.003906-.054688-.003906-.078125-.007812-.011719 0-.019531-.003907-.027344-.003907-.019531-.003906-.039062-.003906-.0625-.007812l-.019531-.003907-.074219-.007812-.027343-.003906c-.019532 0-.042969-.003906-.0625-.003906l-.019532-.003907-.074218-.007812-.023438-.003907c-.023438 0-.042969-.003906-.066406-.003906l-.019532-.003906-.074218-.007812-.027344-.003907c-.015625 0-.039062-.003906-.058594-.003906l-.023437-.003906c-.023438-.003907-.050781-.003907-.074219-.007813h-.023438c-.019531-.003906-.042968-.003906-.0625-.007812h-.019531l-.082031-.011719h-.019531c-.023438-.003906-.042969-.003906-.066407-.007813h-.019531c-.023437-.003906-.050781-.007812-.078125-.007812l-.019531-.003906c-.019531 0-.042969-.003906-.0625-.003906l-.023437-.003907c-.027344 0-.050782-.003906-.078126-.007812h-.019531c-.019531 0-.042969-.003907-.0625-.003907l-.023437-.003906c-.027344-.003906-.050782-.003906-.078125-.007812h-.019531c-.023438-.003906-.042969-.003906-.066407-.007813h-.023437c-.027344-.003906-.050782-.007812-.078125-.007812h-.015625c-.023438-.003907-.046875-.003907-.066406-.007813h-.019532c-.027344-.003906-.054687-.003906-.082031-.007812h-.015625c-.023438-.003906-.042969-.003906-.066406-.003906l-.023438-.003907c-.027344-.003906-.050781-.003906-.078125-.007812h-.015625c-.023437 0-.046875-.003907-.070312-.003907l-.019532-.003906c-.027343-.003906-.054687-.003906-.082031-.007812h-.011719c-.023437 0-.046874-.003906-.070312-.003906h-.023438c-.027343-.003907-.050781-.003907-.078124-.007813h-.011719c-.023438 0-.046875-.003906-.070313-.003906l-.023437-.003907c-.027344 0-.054688-.003906-.082031-.003906l-.011719-.003906-.070313-.003906h-.019531c-.054687-.003906-.113281-.007813-.167969-.011719h-.019531c-.050781-.003906-.109375-.007813-.164063-.011719h-.019531c-.054687-.003906-.113281-.007812-.164062-.011718h-.023438l-.164062-.007813-.023438-.003906-.074219-.003907h-.007812l-.078125-.003906-.023437-.003906c-.027344 0-.046876 0-.074219 0l-.007813-.003906-.082031-.003906h-.023437l-.070313-.003907h-.011719l-.082031-.003906h-.023437c-.023438-.003906-.042969-.003906-.066407-.003906h-.015625c-.023437 0-.054687-.003907-.082031-.003907l-.019531-.003906c-.027344 0-.050782 0-.074219 0h-.007813l-.085937-.003906h-.019531c-.019532-.003906-.046875-.003906-.070313-.003906l-.015625-.003906c-.027344 0-.050781 0-.082031 0h-.015625c-.027344-.003907-.050781-.003907-.074219-.003907h-.011719c-.027343 0-.058593-.003906-.085937-.003906h-.015625c-.023438-.003906-.046875-.003906-.074219-.003906h-.011719c-.027343 0-.054687-.003907-.082031-.003907h-.019531c-.023438 0-.042969 0-.070312 0l-.019532-.003906c-.027344 0-.050781 0-.078125 0h-.019531c-.023438 0-.042969 0-.066406-.003906h-.023438c-.023437 0-.050781 0-.078125-.003906h-.019531c-.023438 0-.042969 0-.066406 0h-.023438c-.027344 0-.050781 0-.078125 0h-.019531c-.023438-.003906-.042969-.003906-.066406-.003906h-.023438c-.027344 0-.050781 0-.078125-.003907h-.019531c-.023438 0-.046875 0-.070312 0h-.015626c-.027343 0-.058593 0-.085937 0h-.011719c-.023437 0-.050781-.003906-.074218-.003906h-.019532c-.027344 0-.054687 0-.082031 0h-.011719c-.023437 0-.046875 0-.070312 0h-.117188c-.023437-.003906-.050781-.003906-.074218-.003906h-.113282c-.023437 0-.050781 0-.070312 0h-.296875c-28.523438.039062-52.792969 20.796875-57.25 48.96875-17.960938-6.960938-38.160157 1.957031-45.117188 19.914062-6.960937 17.957031 1.953125 38.160157 19.914063 45.117188 4.027344 1.5625 8.316406 2.363281 12.636718 2.359375h11.890626c12.851562 0 23.269531-10.417969 23.273437-23.273438 0-1.105468-.078125-2.207031-.234375-3.300781.273438-.148437.542969-.300781.8125-.453125 12.1875-7 20.558594-19.128906 22.78125-33.003906.839844-5.601563 5.632812-9.753906 11.292969-9.785156 4.1875 0 8.050781 2.246093 10.125 5.886718 6.394531 11.148438 20.617187 15.003906 31.765625 8.609375 11.148437-6.394531 15.003906-20.617187 8.609375-31.765625-.003907-.023437-.007813-.027344-.007813-.035156zm0 0" fill="#9fd9c5"/><path d="m430.539062 326.304688h-.433593l-.042969.003906h-.292969l-.070312.003906h-.011719c-.429688.003906-.863281.015625-1.292969.03125-12.472656.574219-22.203125 11.007812-21.902343 23.492188.304687 12.777343 10.734374 22.988281 23.515624 23.015624h.257813l.273437-.003906c.445313-.003906.882813-.019531 1.320313-.050781.410156.117187.824219.226563 1.242187.324219l.242188.054687.089844.023438c.050781.011719.101562.027343.152344.039062 5.070312 1.382813 8.589843 5.988281 8.589843 11.246094.015625 2.699219-.921875 5.320313-2.648437 7.394531-8.195313 9.902344-6.8125 24.570313 3.085937 32.765625 9.902344 8.195313 24.574219 6.8125 32.765625-3.089843 3.410156-4.113282 6.234375-8.679688 8.398438-13.566407.082031-.1875.164062-.378906.246094-.566406v-.003906c.070312-.164063.140624-.328125.210937-.496094l.003906-.003906.027344-.066407.003906-.011718.027344-.0625v-.003906c.058594-.140626.117187-.28125.175781-.425782v-.007812l.027344-.0625.003906-.011719.027344-.0625.003906-.011719c.046875-.117187.09375-.234375.140625-.351562v-.003906l.023438-.0625.007812-.011719.03125-.078125.019531-.058594.007813-.015625.023437-.058594.003907-.011719c.035156-.089843.070312-.179687.105469-.273437l.003906-.011719.023437-.058594.003907-.015624.023437-.054688.007813-.023438.019531-.054687.007812-.023437.019531-.054688.007813-.019531c.035156-.085938.066406-.171875.097656-.257813l.007813-.019531.019531-.054687.007813-.023438.019531-.050781.011719-.027344.019531-.050781.007812-.027344.019531-.050781.007813-.023438.019531-.054687.003906-.011719c.023438-.066406.046876-.125.070313-.1875l.007813-.027344.019531-.046875.007812-.03125.019531-.046875.007813-.03125.019531-.046875.007813-.027344.019531-.050781.007812-.027343.019532-.050782.003906-.019531.066406-.1875.023438-.070313.011718-.03125.015626-.042968.011718-.039063.015625-.039062.011719-.039063.015625-.042968.011719-.03125.015625-.046876.011719-.03125.015624-.046874.003907-.015626.035156-.101562.023437-.078125.015626-.039063.011718-.042968.011719-.035156.015625-.042969.011719-.035157.015625-.042968.011718-.039063.011719-.042969.015625-.039062.011719-.039062.023437-.070313.011719-.042969.015625-.042968.035156-.117188.015626-.042969.011718-.039062.011719-.042969.011719-.035156.015625-.042969.035156-.117187.011719-.035157.027344-.089843.011718-.03125.011719-.042969.023437-.078125.015626-.042969.007812-.039063.015625-.039062.023437-.085938.027344-.082031.007813-.035156.023437-.078125.007813-.023438.015625-.054687.011718-.039063.015626-.042968.007812-.035156.015625-.050782.007813-.03125.015624-.046875.007813-.035156.027344-.082031.011719-.054688.007812-.027344.03125-.09375.015625-.066406.011719-.03125.011718-.050781.011719-.035156.011719-.046875.011719-.035156.011719-.046876.011718-.035156.011719-.046875.007813-.035156.015624-.050781.054688-.191406.003906-.023438.015625-.0625.007813-.023438.015625-.058593.03125-.109375.015625-.058594.007812-.023438.015625-.0625.003907-.023437.019531-.074219.003906-.007812.019531-.082032.007813-.023437.015625-.058594.007812-.027343.011719-.054688.007813-.03125.015624-.050781.007813-.035157.011719-.050781.007812-.03125.023438-.082031.019531-.078125v-.003906l.023437-.082031.003907-.019532.015625-.066406.003906-.023438.015625-.058593.007813-.03125.011718-.050781.007813-.03125.015625-.054688.003906-.03125.023438-.082031.015624-.070313.003907-.011718.019531-.085938.003906-.007812.015625-.074219.007813-.023438.011718-.058593.007813-.027344.011719-.054688.007812-.03125.011719-.054687.007813-.03125.011718-.054688.007813-.027343.015625-.074219.003906-.007813.019531-.085937v-.007813l.019531-.078125.003907-.019531.015625-.0625.003906-.027344.011719-.058594.007812-.027343.011719-.058594.007812-.027344.011719-.058593.003907-.023438.015624-.066406.003907-.019532.019531-.085937v-.003906l.019531-.078125.003907-.023438.011718-.0625.007813-.023437.011719-.058594.003906-.03125.011718-.054687.007813-.03125.011719-.050782.003906-.03125.015625-.058594.003906-.027343.015625-.082031.003906-.015626.015626-.070312.003906-.023438.011718-.0625.007813-.027343.011719-.054688.003906-.03125.011719-.050781.007812-.035156.007813-.054688.007812-.027344.011719-.066406.003906-.019531c.011719-.054687.023438-.113281.03125-.167969l.007813-.023437.011718-.0625.003907-.027344.011719-.058594.003906-.027343.011718-.058594.003907-.027344.011719-.058594.003906-.027344.015625-.070312v-.011719c.011719-.058593.023437-.117187.03125-.175781l.003906-.011719.011719-.074219.003906-.019531.011719-.066406.003906-.023437.011719-.0625.003906-.023438.011719-.066406.003906-.019532.011719-.070312.003906-.015625c.007812-.058594.019531-.117187.027344-.175781l.003906-.007813.011719-.078125.003906-.019531.011719-.0625.003906-.027344.007812-.0625.003907-.023437.011719-.0625.015624-.09375.003907-.015625.027343-.175781v-.011719l.011719-.074219.003907-.023438.007812-.0625.007812-.027343.007813-.054688.003906-.035156.011719-.082031.011719-.0625.003906-.027344.011719-.074219v-.007812l.011718-.089844.003907-.011719.011719-.074218v-.023438l.011718-.0625.003906-.027344.007813-.058594.003906-.027343.007813-.058594.011718-.09375.003907-.023437.011719-.078126v-.007812l.011718-.089844v-.003906l.011719-.082031.003906-.019531.007813-.066407.003906-.027343.007812-.058594.003907-.027344.007812-.058594.003907-.03125.007812-.058594.003906-.027343.007813-.066407.003906-.019531.007813-.089843.003906-.003907.007812-.082031.003906-.019531.007813-.066407.003906-.027343.003907-.058594.003906-.03125.007812-.054687.003906-.03125.007813-.058594.003906-.03125.003907-.0625.003906-.023438.011718-.085937v-.003907l.007813-.082031.003906-.023437.007813-.0625v-.03125l.007812-.058594.003906-.03125.003907-.054688.003906-.03125.007813-.054687v-.035156l.007812-.058594.003906-.027344.007813-.074219.003906-.027343.003906-.070313.003907-.023437.007812-.0625v-.03125l.007812-.058594v-.03125l.007813-.054687.003906-.035157.003907-.054687.003906-.03125.003906-.0625.003906-.023438c.003906-.058594.007813-.117187.015625-.175781v-.015625l.007813-.074219v-.023437l.007812-.0625v-.027344l.007813-.0625v-.027344l.003906-.058594.003906-.03125.003907-.066406.003906-.019531.011718-.175781.003907-.019532.003906-.066406.003906-.03125.003907-.058594v-.03125l.003906-.054687.003906-.035156.003906-.054688.003906-.03125.003907-.058593v-.03125l.007812-.082032v-.003906l.003907-.089844.003906-.015625.003906-.070312v-.03125l.003906-.058594.003906-.03125.003907-.058594v-.027343l.003906-.0625.003906-.027344.003907-.0625v-.027344l.003906-.078125v-.007813l.007812-.089843v-.011719l.003906-.078125v-.027344l.003907-.058593v-.035157l.003906-.050781.003906-.039062v-.054688l.003907-.03125.003906-.058594v-.03125l.003906-.070312v-.015625l.003906-.089844v-.007813l.003906-.082031v-.023437l.003907-.0625v-.03125l.003906-.058594v-.03125l.003906-.058594v-.03125l.003907-.058594v-.03125l.003906-.066406v-.019531l.003906-.089844v-.011719l.003906-.078124v-.085938l.003906-.035156v-.089844l.003907-.054688v-.089843l.003906-.03125v-.089844l.003906-.089844v-.117187l.003907-.058594v-.121094l.003906-.058594v-.121093l.003906-.0625v-.027344c0-.058594 0-.117187 0-.175781v-.125l.003906-.054688v-.777344l-.003906-.074218v-.273438l-.003906-.035156v-.175781l-.003906-.085938v-.121093l-.003907-.054688v-.121094l-.003906-.0625v-.109375l-.003906-.03125v-.089843l-.003907-.050782v-.089844l-.003906-.035156v-.085937l-.003906-.085938v-.019531l-.003906-.066406v-.03125l-.003906-.054688v-.035156l-.003907-.054688v-.097656l-.003906-.023437c0-.058594-.003906-.117188-.007813-.175781v-.019532l-.003906-.066406v-.027344l-.003906-.058594v-.03125l-.003906-.0625v-.023437l-.007813-.171875-.003906-.027344v-.0625l-.003906-.027344-.003907-.058593v-.03125l-.003906-.058594v-.027344l-.003906-.078125v-.007812l-.007812-.089844v-.015625l-.003907-.070313v-.027343l-.003906-.0625-.003906-.027344-.003907-.058594v-.027343l-.003906-.082032v-.003906l-.007812-.089844v-.015625l-.003906-.070312-.003907-.027344-.003906-.058594-.003906-.03125-.003907-.058593v-.027344l-.003906-.070313-.003906-.015625-.003906-.089844-.003906-.007812-.003907-.074219-.003906-.03125-.003906-.058593v-.027344l-.007813-.0625v-.023438l-.007812-.074218v-.011719l-.007813-.089844v-.003906l-.007812-.085938v-.015625l-.003907-.070312-.003906-.023438-.003906-.0625-.003906-.023437-.003906-.066407-.003907-.023437-.015625-.171875v-.023438l-.007812-.0625v-.03125l-.007813-.054687v-.03125l-.007812-.0625-.003907-.023437c-.003906-.054688-.007812-.113282-.015624-.171876l-.003907-.023437-.003906-.058594-.003906-.035156-.003907-.054687-.003906-.027344-.007812-.0625v-.023438l-.019532-.171875-.003906-.023437-.003906-.0625-.003906-.027344-.007813-.058594-.003906-.027344-.007813-.0625v-.027343l-.007812-.070313-.003906-.011718-.007813-.085938-.003906-.019531-.007813-.070313-.003906-.023437-.003906-.0625-.003906-.023438-.007813-.0625-.003906-.027343-.007813-.074219v-.007813l-.011718-.089844-.003906-.007812-.007813-.074219-.003906-.027343-.007813-.058594v-.027344l-.011718-.0625v-.023438l-.011719-.074218v-.011719c-.007813-.058594-.015625-.113281-.023438-.171875l-.003906-.019531-.007813-.070313-.003906-.019531-.007812-.066406-.003906-.019531-.011719-.078126v-.007812c-.007813-.058594-.015625-.117188-.023438-.175781l-.003906-.011719-.007813-.074219-.003906-.019531-.011718-.066406v-.019532l-.011719-.074218v-.011719c-.011719-.058594-.019531-.117187-.027344-.175781v-.007813l-.011719-.078125-.003906-.019531-.007812-.0625-.003907-.027344-.011719-.066406-.003906-.015625c-.007812-.058594-.015625-.117188-.027344-.175781v-.007813l-.011718-.074218-.003906-.019532-.011719-.070312v-.015625l-.011719-.074219-.003906-.011719c-.007813-.058593-.019532-.117187-.027344-.175781v-.003906l-.015625-.082032-.003906-.015624-.011719-.070313v-.015625l-.015625-.078125v-.007813c-.015625-.085937-.03125-.175781-.046875-.261718v-.011719l-.011719-.074219-.003906-.015625-.011719-.070312-.003906-.019531-.015625-.082032-.03125-.175781-.003906-.007813-.011719-.074218-.003906-.019532-.011719-.074218-.003906-.007813-.015625-.085937-.035156-.175782v-.011718c-.003907-.027344-.007813-.050782-.015626-.074219l-.003906-.015625-.011718-.070312-.003907-.015626-.015625-.078124v-.007813c-.011718-.058594-.023437-.113281-.035156-.171875v-.011719l-.015625-.074219-.003906-.019531-.015625-.066406-.003906-.015625-.011719-.074219-.003907-.011719c-.011718-.058593-.023437-.117187-.035156-.171874l-.003906-.007813-.015625-.078125-.003906-.011719-.015625-.074219v-.015624l-.015625-.074219-.003907-.007813c-.019531-.085937-.035156-.171875-.054687-.261718l-.003906-.011719-.015625-.070313-.003906-.015625-.015626-.074219v-.011718c-.019531-.085938-.039062-.171875-.058593-.257813l-.003907-.003906-.015624-.078125-.003907-.015625-.015625-.074219-.003906-.011718-.058594-.257813-.003906-.003906-.019531-.082031v-.003907l-.019531-.082031v-.007812c-.027344-.113282-.054688-.230469-.082032-.339844l-.003906-.015625-.019531-.074219v-.007812c-.03125-.117188-.058594-.230469-.085938-.34375l-.003906-.003907-.019531-.082031v-.007812c-.03125-.113282-.058594-.226563-.089844-.34375v-.003907l-.023438-.082031v-.003906c-.039062-.144532-.074218-.285156-.113281-.429688l-.003906-.003906c-.039063-.144531-.078125-.289062-.117187-.429688v-.003906c-.039063-.144531-.082032-.285156-.121094-.429687-.042969-.144531-.082032-.285157-.125-.429688l-.027344-.085937c-.085938-.289063-.171875-.570313-.261719-.855469-.042969-.144531-.089843-.285156-.136719-.425781-6.09375-18.789063-21.285156-33.214844-40.363281-38.328125-.078125-.019531-.15625-.039063-.230469-.058594l-.082031-.023437c-.6875-.179688-1.378906-.34375-2.074219-.5l-.027343-.003907c-.292969-.066406-.589844-.128906-.886719-.191406-1.449219-.277344-2.917969-.417969-4.390625-.417969-.359375 0-.710937.007813-1.066406.023438-1.765625-.472656-3.578125-.730469-5.402344-.777344-.285156-.003906-.566406-.007812-.851563-.007812zm0 0" fill="#9fd9c5"/><path d="m442.175781 372.847656c0 12.851563-10.417969 23.273438-23.273437 23.273438-12.851563 0-23.269532-10.421875-23.269532-23.273438 0-12.851562 10.417969-23.269531 23.269532-23.269531 12.855468 0 23.273437 10.417969 23.273437 23.269531zm0 0" fill="#daefe6"/><path d="m256 419.390625c0-51.410156-41.671875-93.085937-93.082031-93.085937-.003907 0-.003907 0-.003907 0-34.871093 0-64.898437 19.398437-80.84375 47.777343-37.917968-6.796875-74.164062 18.425781-80.964843 56.339844-6.796875 37.914063 18.425781 74.164063 56.339843 80.960937 4.085938.734376 8.230469 1.101563 12.382813 1.097657h186.171875c25.707031 0 46.542969-20.839844 46.542969-46.546875 0-25.703125-20.835938-46.542969-46.542969-46.542969zm0 0" fill="#c0e6d9"/><g fill="#9fd9c5"><path d="m244.367188 140.128906h-58.179688v-23.269531h58.179688c6.425781 0 11.632812 5.210937 11.632812 11.636719 0 6.425781-5.207031 11.632812-11.632812 11.632812zm0 0"/><path d="m151.277344 70.316406h46.542968c6.429688 0 11.636719 5.207032 11.636719 11.632813 0 6.429687-5.207031 11.636719-11.636719 11.636719h-46.542968c-6.425782 0-11.632813-5.207032-11.632813-11.636719 0-6.425781 5.207031-11.632813 11.632813-11.632813zm0 0"/><path d="m162.914062 326.304688h-.585937l-.121094.003906h-.3125l-.125.003906h-.160156l-.128906.003906h-.152344l-.132813.003906h-.152343l-.132813.003907h-.015625l-.125.003906h-.019531l-.125.003906h-.019531l-.125.003907h-.015625l-.128906.003906h-.144532l-.015625.003906-.128906.003906h-.015625l-.128906.003906h-.011719l-.132813.003907h-.007812c-.089844.003906-.183594.007812-.273438.007812l-.011718.003907-.132813.003906h-.007812l-.132813.003906h-.015625l-.125.007812h-.019531l-.121094.003907h-.023437l-.121094.007812h-.019531l-.125.007813h-.019532l-.125.003906-.019531.003906-.121093.003906h-.019532l-.128906.007813h-.007812l-.136719.007813h-.003907l-.136718.007812h-.003906l-.132813.007812h-.011719l-.128906.007813h-.015625l-.128906.007813h-.011719l-.128906.007812h-.015625l-.125.007812h-.019531l-.121094.007813-.023438.003906-.121094.003907-.015624.003906-.128907.007812h-.015625l-.128906.007813h-.011719l-.128906.011719h-.011719c-.085937.003906-.179687.011718-.269531.019531h-.007813l-.128906.007812h-.015625l-.125.011719h-.019531l-.125.011719h-.015625l-.125.011719h-.015625l-.125.007812-.019531.003906-.121094.007813-.023437.003906-.121094.007813-.019532.003906-.121093.007812-.019531.003906-.125.007813h-.015626l-.128906.011719h-.007812l-.132813.011718-.140625.015626h-.003906l-.128906.011718h-.011719l-.128906.011719h-.015625l-.121094.011719-.023438.003906-.121093.011719h-.019531l-.117188.011719-.027344.003906-.117187.011718h-.019531l-.125.011719-.015626.003907-.128906.011718h-.007812l-.128906.015625h-.011719c-.089844.007813-.183594.019531-.273438.027344l-.132812.015625h-.011719l-.125.015625h-.019531l-.121094.015625h-.015625l-.121094.011719-.023437.003906-.121094.015625h-.019531l-.117188.015625h-.023437l-.121094.015625-.019531.003906-.121094.011719-.019531.003906-.121094.015625h-.015625l-.125.015625h-.015625l-.125.015625-.007813.003906-.125.015626h-.015624l-.125.015624h-.011719l-.125.015626-.019531.003906-.117188.015625-.023438.003906-.121093.015625h-.019531l-.117188.015625-.023438.003906-.117187.015625-.023437.003906-.117188.015626-.023438.003906-.117187.015625h-.019531l-.125.019531h-.007813l-.128906.019531h-.007813l-.128906.019531h-.007812l-.125.015626-.015625.003906-.121094.015625-.019531.003906-.117188.015625-.164062.027344-.117188.015625-.019531.003906-.121094.019531h-.019531l-.121094.019532-.015625.003906-.121093.015625-.019532.003906-.121094.019531-.015624.003906-.125.019532h-.011719l-.125.019531-.011719.003906-.125.019531h-.007812l-.125.019532-.015626.003906-.121093.019531-.015625.003907-.121094.019531-.019531.003906-.121094.019531h-.019531l-.140625.023438-.113281.019531-.023438.003906-.109375.023438-.140625.023437-.019531.003906-.121094.019532-.015625.003906-.125.023438h-.003906l-.128906.023437h-.007813l-.128906.023437h-.007813l-.125.023438-.015625.003906-.121093.019532-.015626.003906-.117187.019531-.023437.007813-.117188.019531-.15625.03125-.140625.023437-.113281.023438-.023438.003906-.117187.023438h-.015625l-.121094.023437-.015625.003906-.125.023438-.007813.003906-.117187.019531-.023437.007813-.113282.019531-.015625.003906-.121093.023438-.15625.03125-.113282.023437-.023437.003907-.117188.023437-.015625.003906-.121094.027344h-.015624l-.121094.027344-.015625.003906-.121094.023437-.136719.027344-.015625.003906-.125.027344h-.003906l-.132813.027344-.128906.027344-.007812.003906-.125.027344-.011719.003906-.121094.023438-.015625.003906-.121094.027344-.019531.003906-.109375.023437-.027344.007813-.113281.023437-.023437.003907-.113282.027343-.019531.003907-.117187.027343-.019532.003907-.113281.023437-.023437.007813-.117188.023437-.011718.003906-.125.027344-.007813.003906-.121094.027344-.011719.003906-.117187.027344-.019531.003906-.117188.027344-.015625.003906-.117187.027344-.019532.003906-.117187.027344-.019531.003906-.109375.027344-.027344.007813-.113281.027343-.019532.003907-.113281.027343-.023437.003907-.113282.03125-.019531.003906-.113281.027344-.023438.003906-.117187.03125h-.011719l-.121094.03125-.007812.003906-.125.03125h-.003906l-.125.03125-.011719.003906-.121094.03125-.015625.003906-.117187.027344-.015625.003906-.121094.03125-.011719.003907-.117187.03125-.023438.003906-.113281.03125-.019531.003906-.113282.03125-.019531.003907-.117187.03125-.015625.003906-.117188.03125-.015625.003906-.121094.03125-.007812.003906-.121094.03125-.007812.003906-.121094.03125-.011719.003907-.117187.03125-.019532.003906-.136718.039063-.109375.027343-.023438.007813-.109375.027344-.023437.007812-.136719.039062-.105469.027344-.136719.039063-.023437.007812-.109375.03125-.023438.003907-.109374.03125-.019532.007812-.113281.03125-.015625.003906-.113281.03125-.011719.003906-.117188.035157-.019531.003906-.109375.03125-.023437.007813-.105469.03125-.027344.007812-.105468.03125-.03125.007812-.101563.03125-.03125.007813-.101563.03125-.03125.007813-.101562.03125-.027344.007812-.105468.03125-.027344.007812-.109375.035157-.019531.003906-.109376.035156-.023437.003907-.105469.035156-.019531.003906-.105469.035156-.023437.003906-.109375.035157-.023438.007812-.105468.03125-.027344.007813-.109375.035156-.019531.003906-.109376.035156-.027343.007813-.128907.042969-.109374.03125-.023438.007812-.109375.035156-.019531.007813-.109375.035156-.023438.007813-.109375.035156-.019531.003906-.105469.035156-.027344.007813-.117187.039063c-.035156.011718-.074219.023437-.113281.035156l-.019532.007812-.109374.035156-.019532.007813-.109375.035156-.027343.007813-.363282.121094-.027344.007812-.101562.035156-.03125.011719-.101562.035156-.023438.007813c-.035156.011718-.074219.023437-.109375.035156l-.019531.007812-.109375.035157-.023438.007812-.097656.035157-.03125.011718-.097656.03125-.019531.007813-.109376.039062-.128906.042969-.027344.007812-.097656.035157-.03125.011719-.101562.035156-.027344.011718-.101562.035157-.027344.007812-.101563.039063-.03125.007812-.101562.035156-.027344.011719-.101563.035157-.027343.011718-.105469.035156-.019531.007813-.105469.039063-.023438.007812-.097656.035156-.023437.007813-.105469.039062-.019531.007813-.109375.039062-.019532.007813-.109374.039062-.019532.007813-.105468.039062-.027344.011719-.101563.035156-.027343.011719-.101563.039062-.027344.007813-.101562.039063-.027344.011718-.101563.035156-.027343.011719-.101563.039063-.023437.007812-.105469.039063-.019531.007812-.105469.042969-.019531.003906-.101563.039063-.023437.011719-.101563.039062-.023437.007812-.105469.039063-.023438.011719c-.035156.011718-.066406.023437-.101562.039062l-.027344.007813-.097656.039062-.03125.011719-.101562.039062-.023438.011719-.101562.039063-.027344.011718-.101563.039063-.023437.011719-.101563.039062-.03125.011719-.097656.039063-.027344.011718-.09375.035156-.03125.015626-.125.046874-.089843.035157-.035157.015625-.089843.039062-.03125.011719-.097657.039063-.027343.011718-.101563.039063-.027344.011719c-.03125.011718-.0625.027343-.097656.039062l-.03125.011719-.097656.042969-.027344.011718-.097656.039063-.027344.011719-.101563.042968-.023437.007813c-.035156.015625-.066406.03125-.101563.042969l-.027343.011718-.101563.042969-.019531.007813-.101563.042968-.023437.007813-.101563.042969-.011718.007812-.109375.042969-.019531.011719c-.035157.011718-.070313.027343-.105469.042968l-.019531.007813-.105469.046875-.023438.007812-.101562.042969-.023438.011719-.097656.042968-.03125.011719-.09375.042969-.03125.011719-.097656.042969-.027344.011718-.097656.042969-.023438.007813-.105469.046874-.019531.007813-.105469.046875-.019531.007812-.097656.042969-.023437.011719-.09375.042969-.027344.011719-.097656.042968-.023438.011719-.101562.042969-.023438.011718-.101562.042969-.023438.011719c-.035156.015625-.066406.03125-.101562.046875l-.023438.011719c-.03125.011718-.066406.027344-.097656.042968l-.027344.011719-.097656.042969-.027344.011719-.097656.046875-.027344.011718-.097656.042969-.027344.011719c-.03125.015625-.0625.03125-.09375.042969l-.117188.058593-.035156.011719-.085937.042969-.03125.011719-.09375.042969-.023438.011718c-.035156.015625-.066406.03125-.097656.046875l-.027344.011719-.097656.046875-.023437.007813c-.035157.015624-.066407.03125-.101563.046874l-.023437.011719-.097657.046875-.027343.011719-.097657.046875-.027343.011719-.097657.046875-.023437.011718-.097656.046876-.027344.011718-.097656.046875-.019532.011719-.105468.046875-.015626.011719-.109374.050781h-.003907l-.105469.050781-.019531.011719-.097656.046875-.117187.058594-.035157.015625-.089843.042969-.03125.015624c-.027344.015626-.058594.027344-.089844.042969l-.03125.015625-.089844.046875-.03125.015625c-.03125.015625-.0625.027344-.09375.042969l-.125.0625-.027344.011719-.125.0625-.089844.046875-.027343.011719-.242188.121093-.082031.042969-.03125.015625c-.027344.015625-.0625.03125-.085938.042969l-.035156.019531-.085937.042969-.035157.019531-.085937.042969-.035156.015625-.089844.046875-.03125.015625-.085937.046875-.039063.019531-.082031.042969-.15625.078125-.089844.046875-.03125.015625-.085938.046875-.03125.015625-.082031.042969-.035156.019531-.085937.042969-.027344.015624c-.03125.015626-.058594.03125-.089844.046876l-.027344.011718-.09375.050782-.027344.015624-.089843.046876-.03125.015624c-.03125.015626-.058594.03125-.089844.046876l-.03125.019531-.089844.046875-.027343.015625-.089844.046875-.035156.019531-.085938.046875-.03125.015625c-.03125.019531-.058594.03125-.089844.050781l-.027344.011719-.09375.050781-.023437.011719-.09375.050781-.109375.0625-.035156.019532-.085938.046874-.023437.011719-.089844.050781-.03125.015626-.089844.050781-.027343.015625-.089844.050781-.03125.015625-.085938.050781-.03125.015625-.089844.050782-.03125.015624-.089843.050782-.027344.015625-.089844.050781-.03125.015625-.085937.050781-.027344.015625-.089844.050781-.03125.015626-.085937.046874-.023438.015626-.082031.046874-.042969.023438-.074219.042969-.03125.015625-.085937.050781-.03125.019531-.089844.046875-.027343.019531-.085938.046876-.035156.023437-.082032.046875-.035156.019531-.082031.046875-.117187.070313-.035157.019531-.085937.046875-.035156.023437-.082032.046876-.03125.019531-.078125.042969-.039062.023437-.074219.042969-.039062.027344-.074219.042968-.042969.023438-.074219.042968-.03125.019532-.085937.050781-.03125.019531-.085938.050782-.03125.019531-.085937.050781-.03125.019531-.082031.050781-.035157.019532-.085937.050781-.03125.019531-.082032.050782-.03125.019531-.085937.050781-.03125.019531-.082031.050781-.03125.019532-.117188.070312-.070312.042969-.042969.027344-.070313.042969-.117187.070312-.03125.019531c-.027344.015625-.054687.035157-.082031.050781l-.035156.023438-.082032.050781-.035156.019531-.078125.050782-.035156.019531-.082031.050781-.035157.023438-.082031.050781-.03125.019531-.085938.054688-.027343.015625-.085938.054687-.03125.019532-.078125.050781-.03125.019531-.074218.046875-.042969.027344c-.023438.015625-.042969.027343-.070313.042969l-.042968.03125-.066407.042968-.042969.023438-.074218.050781-.03125.019531-.082032.050782-.035156.023437-.082031.050781-.03125.023438-.078125.050781-.039062.023437-.078126.050782-.035156.023437-.078125.050781-.035156.023438-.082031.050781-.027344.023438c-.027344.015625-.050781.03125-.078125.046875l-.039063.027344-.078124.050781-.027344.019531-.078125.050781-.035157.023438-.074218.050781-.027344.015625c-.027344.019531-.054688.039063-.085938.054687l-.027343.019532c-.03125.023437-.054688.039062-.085938.058594l-.027343.015624-.082032.058594-.03125.019532-.082031.054687-.03125.019531-.078125.054688-.117188.078125-.027343.019531-.085938.054688-.027343.019531-.085938.058593-.023438.019532-.082031.050781-.03125.023437-.078125.050782-.03125.023437-.074218.050781-.035157.023438c-.023437.019531-.050781.035156-.074219.050781l-.03125.023438-.078124.054687-.035157.023438-.078125.054687-.03125.019531c-.027344.019532-.054687.035157-.082031.054688l-.03125.023438-.078125.054687-.035156.023437-.078125.054688-.03125.023438-.078125.054687-.03125.019531-.082032.058594-.03125.019531c-.023437.019531-.054687.039063-.078124.054688l-.03125.023437c-.023438.015625-.046876.035156-.070313.050782l-.039063.027343-.070312.050781-.035156.023438c-.027344.019531-.050782.035156-.078125.054688l-.019531.015624c-.03125.019532-.058594.042969-.089844.0625l-.019532.015626c-.03125.019531-.058593.039062-.085937.058593l-.027344.023438-.082031.058593-.03125.019532c-.027344.019531-.050781.039062-.078125.058594l-.03125.019531-.109375.082031-.078125.054688-.109375.082031-.03125.019531-.109375.078125-.109375.082031-.066406.050782-.042969.03125-.066406.046874-.039063.027344-.066406.050782-.039062.027343-.070313.054688-.035156.023437-.074219.054688-.03125.023437c-.027344.019531-.054688.039063-.078125.058594l-.21875.164063-.03125.019531-.074219.058593-.035156.023438-.074219.058594-.03125.023437c-.027343.019531-.050781.039063-.078125.058594l-.03125.023437c-.023437.015626-.046875.035157-.070312.054688l-.035156.023438-.0625.050781-.109376.082031-.035156.027344c-.027344.019531-.046875.035156-.070312.054687l-.035156.023438-.074219.058593-.03125.023438-.070313.054688-.039062.027343-.105469.082031c-.023437.019532-.046875.035157-.070313.054688l-.039062.03125-.175781.136719-.039063.03125c-.019531.015625-.042968.03125-.0625.046875l-.042968.035156-.058594.042969-.046875.039062-.0625.046875-.042969.03125c-.019531.019532-.039062.03125-.058594.050782l-.046875.035156-.058593.046875-.042969.035156-.0625.046875-.039063.03125c-.023437.015625-.042968.035156-.066406.054688l-.035156.027343c-.023438.019531-.046875.035157-.070313.054688l-.039062.03125-.066407.054687-.039062.027344-.070312.058594-.035157.027344-.070312.058593-.03125.023438c-.027344.019531-.050781.039062-.074219.058593l-.03125.027344c-.027344.019532-.050781.039063-.074219.058594l-.03125.027344-.066406.054687-.039063.027344-.0625.050781-.039062.035156-.0625.046876-.042969.035156-.058593.050781-.039063.03125-.066406.054687-.03125.027344-.074219.058594-.03125.027344-.074219.058594-.027343.023437c-.023438.019531-.050782.042969-.078126.0625l-.03125.027344-.070312.058593-.03125.027344-.074219.0625-.03125.023438-.074219.058594-.03125.027343-.066406.058594-.035156.027344-.0625.054687-.039062.03125-.0625.054688-.039063.03125-.0625.054687-.035156.03125-.070313.054688-.027344.023437-.074218.0625-.03125.027344-.070313.058594-.035156.03125-.0625.054687-.042969.035157c-.023437.019531-.042968.035156-.066406.058593l-.03125.027344c-.023438.019531-.046875.039063-.070312.058594l-.035157.03125-.070312.058593-.03125.027344c-.023438.019532-.042969.039063-.066407.058594l-.035156.027344-.070312.0625-.027344.023437c-.019531.019531-.042969.039063-.066406.058594l-.035156.03125c-.023438.015625-.042969.035156-.066407.054687l-.09375.082032-.039062.035156-.066407.058594-.027343.023437-.105469.09375-.066406.058594-.03125.027344-.105469.09375-.066406.058593-.03125.027344c-.023438.019532-.046875.042969-.070313.0625l-.03125.03125-.070312.058594-.03125.027344-.058594.054687-.046875.039063-.054687.050781-.039063.035156c-.023437.019531-.039063.035157-.058594.054688l-.042969.035156-.054687.050781-.042969.039063-.058594.050781-.035156.035156-.066406.058594-.03125.027344-.070312.0625-.027344.027344-.070313.0625-.03125.03125c-.019531.019531-.046875.042968-.066406.058593l-.035156.035157-.066407.058593-.035156.03125-.066406.0625-.03125.03125-.066406.058594-.035156.03125-.054688.050781-.042969.042969-.054687.050781-.042969.035156-.054687.054688-.042969.035156-.054688.050782-.046875.046874-.046875.042969-.046875.046875-.050781.046875-.039063.035157-.0625.058593-.035156.035157-.066406.058593-.03125.035157-.066406.058593-.035156.03125c-.019532.023438-.042969.042969-.0625.0625l-.03125.03125c-.023438.019531-.046876.042969-.070313.0625l-.027344.03125-.066406.0625-.035156.03125-.09375.09375-.058594.050781-.09375.09375-.039063.035157-.058593.058593-.035157.03125-.058593.058594-.035157.03125-.097656.097656c-.019531.019532-.039062.039063-.0625.058594l-.128906.128906c-.023438.019532-.042969.042969-.066406.0625l-.03125.03125c-.023438.023438-.046875.042969-.066406.066407l-.03125.027343-.1875.1875c-.019532.019532-.042969.042969-.0625.0625l-.035157.03125-.089843.089844c-.019532.019532-.042969.046875-.066407.066406l-.023437.023438-.070313.074219-.023437.019531c-.023438.023438-.046875.046875-.070313.070312l-.027343.027344c-.023438.019532-.046876.046875-.070313.070313l-.121094.121093-.066406.070313-.125.125c-.019531.019531-.042969.042969-.066406.066406l-.027344.027344c-.019531.023437-.042969.046875-.066406.066406l-.027344.03125c-.019531.019531-.039063.039063-.058594.058594l-.035156.035156-.054687.058594-.09375.09375-.035157.039063c-.019531.019531-.039062.035156-.058593.058593l-.035157.035157c-.019531.019531-.039062.039062-.058593.0625l-.027344.027343-.066406.070313-.027344.027344-.066406.070312-.027344.027344c-.023438.023437-.042969.046875-.066406.070312l-.027344.027344c-.023438.023438-.042969.046875-.066406.070312l-.027344.027344-.066406.070313-.027344.027343c-.019532.023438-.046875.050782-.066406.070313l-.027344.027344c-.019532.023437-.042969.046875-.0625.070312l-.027344.027344-.0625.066406-.03125.03125-.058594.0625-.03125.035157-.058594.058593-.03125.035157c-.019531.023437-.039062.042968-.058593.0625l-.027344.03125c-.019531.019531-.042969.046874-.0625.066406l-.03125.03125-.0625.070312-.027344.027344-.066406.070312-.027344.03125-.0625.066407-.03125.03125c-.019531.023437-.042969.046875-.0625.070312l-.027343.03125c-.019532.019531-.042969.046875-.0625.066407l-.027344.03125c-.023438.023437-.046875.046874-.066406.070312l-.027344.03125-.058594.0625-.03125.035156-.058594.0625-.03125.035156c-.019531.019532-.039062.042969-.058594.0625l-.027343.03125-.0625.070313-.023438.023437-.066406.074219-.023437.027344-.066407.070313-.027343.03125-.058594.066406-.03125.035156-.0625.066406-.027344.035156-.0625.066407-.03125.035156-.058594.066406-.03125.035157c-.019531.019531-.039062.042968-.058594.066406l-.03125.03125-.058593.070312-.027344.03125-.054687.058594-.035157.042969-.054687.058593-.03125.039063-.050782.058594-.039062.039062-.054688.0625-.023437.027344-.0625.074219-.027344.03125-.0625.070312-.027343.027344-.0625.074219-.027344.03125-.0625.074219-.023438.023437c-.019531.027344-.042968.050781-.066406.078125l-.023438.027344-.0625.074218-.027343.027344-.0625.074219-.023438.03125c-.023437.023437-.039062.042969-.058593.066406l-.027344.035157-.058594.0625-.03125.039062-.054688.0625-.03125.039062-.050781.0625-.035156.039063-.054687.0625-.023438.03125-.066406.074219-.023438.03125-.0625.070312-.023437.03125c-.019531.023438-.042969.050782-.0625.074219l-.027344.03125-.0625.074219-.023437.027344-.0625.074218-.023438.027344-.0625.078125-.023438.027344-.0625.078125-.023437.027344-.0625.074218-.019531.023438-.066406.078125-.015626.019531c-.023437.027344-.042968.050781-.066406.078125l-.019531.027344c-.019531.023437-.039063.046875-.0625.074219l-.019531.027343-.0625.074219-.027344.03125-.058594.074219-.023437.03125-.0625.074219-.027344.03125c-.019531.023437-.035156.046874-.054687.070312l-.03125.035156-.082032.105469-.058594.074219-.023437.027344-.0625.078124-.023437.027344-.058594.070313-.027344.035156c-.015625.023437-.035156.046875-.054688.066406l-.027343.039063c-.019531.023437-.035157.042968-.050781.0625l-.03125.042968-.054688.0625-.027344.039063-.054687.066406-.027344.035157c-.019531.023437-.039063.046874-.058594.070312l-.023437.03125c-.019532.027344-.039063.050781-.058594.078125l-.023438.027344-.0625.078125-.023437.03125-.058594.074218-.023437.03125c-.019532.027344-.042969.054688-.0625.078126l-.019532.027343c-.019531.023438-.042968.054688-.0625.078125l-.082031.109375-.023437.027344-.050782.066406-.03125.042969-.050781.066406-.03125.035156-.050781.066407-.027344.039062-.054687.070313-.019531.023437-.0625.082031-.023438.027344c-.019531.027344-.039062.054688-.058594.082032l-.019531.023437-.0625.082031-.023437.027344-.058594.082031-.023438.027344c-.019531.027344-.035156.050781-.058594.078125l-.082031.109375-.019531.027344-.0625.078125-.019531.03125-.0625.082031-.015625.023437c-.019532.023438-.039063.046876-.058594.074219l-.027344.035157-.050781.070312-.023437.035156-.082032.105469c-.015625.023437-.03125.046875-.050781.070313l-.027344.035156-.054687.074218-.023438.035157c-.019531.023437-.035156.046875-.054687.074219l-.027344.03125-.054687.078124-.023438.03125-.054688.078126-.105468.140624-.054688.078126-.082031.109374-.019531.03125c-.019532.023438-.039063.050782-.054688.074219l-.023437.035157c-.019531.023437-.039063.046874-.054688.074218l-.023437.03125c-.019532.027344-.035156.046875-.054688.074219l-.019531.03125-.058594.078125-.015625.023438c-.023437.03125-.042968.058593-.0625.085937l-.015625.023437c-.019531.03125-.039062.058594-.0625.085938l-.015625.027344-.0625.082031-.015625.027344-.0625.085937-.015625.023438-.0625.085937-.019531.027344-.054687.082031-.023438.03125-.136719.191406-.015625.023438-.0625.089844-.011718.019531-.078126.109375-.058593.085938-.011719.015624-.0625.089844-.015625.023438-.0625.089844-.015625.019531-.058594.089843-.015625.023438c-.019531.027344-.042969.0625-.0625.089844l-.015625.019531-.058594.089844-.015624.023437c-.019532.03125-.042969.0625-.0625.089844l-.011719.019531c-.023438.03125-.042969.0625-.0625.09375l-.015625.019531-.0625.09375-.011719.015626-.0625.09375-.011719.019531-.0625.09375-.011718.015625-.058594.085937-.019532.027344c-.015624.027344-.039062.058594-.054687.085937l-.011719.015626c-.019531.03125-.042968.0625-.0625.09375l-.015625.023437-.058593.089844-.015626.019531-.058593.089844-.015625.027344-.058594.089843-.015625.019531-.058594.089844-.015625.023438-.058594.089844-.015624.023437-.058594.089844-.015625.027343-.058594.085938-.015625.023438-.058594.09375-.011718.019531-.0625.089843-.007813.015626-.058594.09375-.011719.019531-.0625.09375-.011718.015625-.0625.097656-.007813.015625-.078125.117187c-.015625.03125-.035156.058594-.054687.089844l-.015625.027344c-.019532.027344-.039063.058594-.058594.085938l-.015625.027343c-.015625.027344-.039063.058594-.054687.089844l-.015626.023437c-.019531.03125-.039062.058594-.058593.089844l-.015625.023438-.054688.089844-.015625.027343c-.019531.03125-.039062.058594-.058593.089844l-.011719.019531-.058594.09375-.011719.019532-.054687.089843-.015625.023438-.050782.085937-.019531.023438-.054687.089844-.011719.023437-.058594.09375-.015625.023437c-.019531.03125-.035156.0625-.054687.089844l-.015625.027344-.054688.089844-.015625.023437c-.019531.03125-.039062.0625-.054687.09375l-.015625.023438c-.019531.027343-.039063.058593-.054688.089843l-.015625.023438c-.019531.03125-.039062.0625-.054687.09375l-.015625.023438-.054688.089843-.015625.027344c-.019531.03125-.039062.0625-.054687.09375l-.011719.015625c-.019531.03125-.039063.0625-.058594.09375l-.011719.019531-.054687.097657-.007813.011718-.058593.097656-.011719.023438-.058594.09375-.011718.019531-.054688.09375-.015625.023438c-.019531.03125-.035156.0625-.054687.09375l-.015626.023437-.050781.09375-.015625.023438-.054687.09375-.015625.023437-.054688.09375-.011718.023438-.054688.09375-.011719.023437-.058593.09375-.011719.019532c-.019531.035156-.035157.066406-.054688.101562l-.007812.011719-.058594.097656-.007813.015625c-.019531.035156-.039062.070312-.058593.101562l-.007813.011719c-.019531.035157-.035156.066407-.054687.101563l-.015625.019531c-.015625.03125-.035156.066406-.054688.097656l-.011718.019531c-.015626.03125-.035157.0625-.054688.09375l-.011719.023438-.054687.097656-.011719.019532c-.015625.03125-.035156.066406-.054687.097656l-.011719.023437-.058594.097657-.007813.015624-.054687.101563-.011719.019531-.058594.101563-.003906.011719-.058594.105468-.011718.015625-.054688.101563-.007812.011718c-.019532.035157-.035156.066407-.054688.101563l-.007812.011719c-.019532.035156-.039063.074218-.058594.105468l-.003906.011719c-.023438.039063-.039063.066407-.058594.105469l-.007812.015625c-.019532.035156-.039063.066406-.058594.101563l-.007813.015624c-.019531.035157-.035156.066407-.054687.101563l-.011719.019531c-.019531.035156-.035156.066406-.054687.101563l-.007813.015625c-.019531.035156-.039063.066406-.058594.101562l-.007812.019532c-.019531.035156-.035157.066406-.054688.101562l-.007812.015625c-.019531.035156-.039063.070313-.058594.105469l-.007813.015625-.054687.101562-.007813.015625-.058593.105469-.003907.011719c-.019531.035156-.039062.070312-.058593.109375l-.003907.003906-.058593.109375-.003907.007812-.058593.109376-.003907.011718-.058593.105469-.007813.015625c-.015625.035156-.035156.070312-.054687.105469l-.007813.011719-.054687.105468-.007813.015625c-.019531.035157-.035156.070313-.054687.105469l-.007813.015625c-.019531.035156-.035156.066406-.054687.101563l-.007813.019531c-.019531.035156-.035156.070312-.054687.101562l-.007813.019531c-.019531.035157-.039062.066407-.054687.101563l-.007813.019531c-.019531.035156-.035156.066406-.054687.101563l-.007813.019531c-.019531.035156-.035156.066406-.054687.105469l-.0625.125-.058594.109375-.003906.011718-.054688.109376-.007812.011718-.054688.105469-.007812.015625-.050781.105469-.007813.015625-.054687.105468-.007813.015626-.050781.105468-.007813.015625-.054687.105469-.007813.019531c-.019531.035157-.035156.066407-.054687.105469l-.003906.007812c-.019532.039063-.035157.074219-.054688.113282l-.003906.011718c-.019532.035157-.039063.074219-.058594.113282-.058594.121094-.117188.238281-.175781.359375l-.003907.003906-.054687.117187-.003906.007813-.050781.109375-.066407.132812c-.019531.039063-.035156.074219-.054687.113282l-.003906.011718-.054688.113282-.003906.007812-.054688.113282-.003906.007812c-.019531.039062-.039062.078125-.054688.117188h-.003906c-.09375.207031-.1875.40625-.285156.613281l-.054688.117187-.003906.007813-.054687.117187-.003907.003906c-.019531.042969-.03125.078126-.050781.117188l-.003906.007812c-.019531.039063-.035156.074219-.054687.117188v.003906c-.019532.042969-.039063.078125-.054688.117188l-.003906.007812c-.019532.039063-.035156.074219-.054688.117188v.003906c-.132812.289062-.257812.574219-.386718.863281l-.054688.121094-.003906.003906c-4.324219 9.796875-6.914063 20.269531-7.65625 30.953125-1.347656 19.234375 13.152344 35.917969 32.382812 37.265625.832032.058594 1.65625.085938 2.476563.085938 18.316406-.019531 33.503906-14.195313 34.785156-32.46875.914063-12.148438 11.03125-21.539063 23.214844-21.550781 12.84375.015624 23.253906 10.425781 23.269531 23.273437v.320313c-.097656 19.300781 15.378906 35.078124 34.683594 35.347656.152344.003906.300781.003906.449218.003906 18.796876.019531 34.179688-14.957031 34.664063-33.746094.003906-.234375.007813-.480468.011719-.714844v-.003906c.003906-.273437.003906-.542968.003906-.8125v-.117187c.003906-.09375.003906-.183594.003906-.277344-.003906-51.410156-41.679687-93.085937-93.089844-93.085937zm0 0"/><path d="m69.828125 372.847656c-38.558594 0-69.8164062 31.257813-69.8164062 69.816406 0 38.558594 31.2578122 69.816407 69.8164062 69.816407h.238281l.09375-.003907h.464844l.101562-.003906h.117188l.105469-.003906h.011719c.070312 0 .144531 0 .214843-.003906h.121094c.070313-.003906.144531-.003906.21875-.003906h.003906c1.34375-.03125 2.679688-.101563 4.003907-.210938h.011718l.101563-.007812h.011719l.097656-.007813.011718-.003906.09375-.007813h.023438l.09375-.007812.023438-.003906.070312-.007813h.03125l.082031-.007813.042969-.003906.050781-.003906.074219-.007812.039062-.003907.1875-.015625.003907-.003906c.648437-.058594 1.292969-.132812 1.9375-.210938 12.757812-1.574218 21.820312-13.191406 20.246093-25.949218-1.574218-12.753906-13.191406-21.820313-25.949218-20.242188-.007813 0-.015625 0-.027344 0-.980469.121094-1.964844.183594-2.953125.183594-12.851563 0-23.273437-10.421875-23.273437-23.273438 0-12.851562 10.421874-23.269531 23.273437-23.269531 12.851563.003907 23.277344-10.410156 23.28125-23.265625.003906-12.851562-10.410156-23.273437-23.261719-23.28125-.007812 0-.015625 0-.019531 0zm0 0"/></g><path d="m93.097656 431.027344c0 19.28125-15.628906 34.90625-34.90625 34.90625s-34.90625-15.625-34.90625-34.90625c0-19.277344 15.628906-34.90625 34.90625-34.90625s34.90625 15.628906 34.90625 34.90625zm0 0" fill="#f2f9f6"/></svg>